<?xml version="1.0" encoding="utf-8"?>
<!-- Generator: Adobe Illustrator 15.1.0, SVG Export Plug-In . SVG Version: 6.00 Build 0)  -->
<!DOCTYPE svg PUBLIC "-//W3C//DTD SVG 1.1//EN" "http://www.w3.org/Graphics/SVG/1.1/DTD/svg11.dtd" [
	<!ENTITY ns_extend "http://ns.adobe.com/Extensibility/1.0/">
	<!ENTITY ns_ai "http://ns.adobe.com/AdobeIllustrator/10.0/">
	<!ENTITY ns_graphs "http://ns.adobe.com/Graphs/1.0/">
	<!ENTITY ns_vars "http://ns.adobe.com/Variables/1.0/">
	<!ENTITY ns_imrep "http://ns.adobe.com/ImageReplacement/1.0/">
	<!ENTITY ns_sfw "http://ns.adobe.com/SaveForWeb/1.0/">
	<!ENTITY ns_custom "http://ns.adobe.com/GenericCustomNamespace/1.0/">
	<!ENTITY ns_adobe_xpath "http://ns.adobe.com/XPath/1.0/">
]>
<svg version="1.1" id="レイヤー_4" xmlns:x="&ns_extend;" xmlns:i="&ns_ai;" xmlns:graph="&ns_graphs;"
	 xmlns="http://www.w3.org/2000/svg" xmlns:xlink="http://www.w3.org/1999/xlink" x="0px" y="0px" width="284.803px"
	 height="230.2px" viewBox="-29.757 181.896 284.803 230.2" enable-background="new -29.757 181.896 284.803 230.2"
	 xml:space="preserve">
<metadata>
	<sfw  xmlns="&ns_sfw;">
		<slices></slices>
		<sliceSourceBounds  height="184.6" width="285.262" y="80.934" x="173.064" bottomLeftOrigin="true"></sliceSourceBounds>
	</sfw>
</metadata>
<path fill="none" d="M253.931,248.077c-1.637,0.303-3.213,0.607-4.717,0.922c-5.43,1.139-11.029,2.563-16.754,4.209
	c4.375-0.436,8.701-1.197,12.891-2.309C248.247,250.13,251.107,249.179,253.931,248.077z"/>
<path fill="#3E8A4B" d="M-23.768,311.902h1.271v8.824h1.621v-3.008h3.004v3.008h1.605v-8.824h9.01v8.824h1.609v-3.008h3.004v3.008
	h1.611v-8.824h1.268v31.979h8.49v-21.188h1v20.688h0.002v-20.688h34.98h1v21.188h4.521c2.184,0,3.969,1.783,3.969,3.967v7.826
	h13.498v-27.584h44.979v27.586h13.475v-7.826c0-2.182,1.785-3.967,3.969-3.967h28.332v-64.506c-1.709,0.338-3.418,0.643-5.109,0.893
	c-1.91,0.283-4.168,0.506-6.527,0.686c-0.643,0.561-1.23,1.102-1.764,1.619v2.502h-0.01v16.633h-10.748v0.004h-2.906v-0.004
	l-18.125-0.002v-35.975l18.125,0.002v-0.006h2.906v0.006h10.748v6.402c3.27-2.434,7.568-5.164,13.41-8.18v-81.936h-55.857v2.527
	l-5.542,4.184l5.542,4.184v6.861l-5.542,4.186l5.542,4.184v6.863l-5.545,4.184H77.312l-5.543-4.184v-6.863l5.54-4.184l-5.54-4.186
	v-6.861l5.54-4.184l-5.54-4.184v-2.527h-99.149c-1.565,0-2.835,1.27-2.835,2.834v89.467c2.853-3.773,7.364-6.223,12.459-6.223
	c8.629,0,15.625,6.996,15.625,15.627c0,8.629-6.996,15.625-15.625,15.625c-5.095,0-9.606-2.449-12.459-6.221v50.75h6.459
	L-23.768,311.902z M132.925,231.531h-3h-6.006h-3v-9.607h3h6.006h3V231.531z M118.062,191.103l18.018,0.002v12.01l-18.018-0.002
	V191.103z M123.156,307.111c6.689,0,12.113,5.424,12.113,12.115c0,6.689-5.424,12.113-12.113,12.113
	c-6.691-0.002-12.115-5.426-12.115-12.115C111.04,312.532,116.464,307.109,123.156,307.111z M95.845,300.359h-3.6v3.355h3.6v2.332
	h-3.6v3.354h3.6v2.332h-3.6v1.873h-9.613v-1.873h-3.604V309.4h3.604v-3.354h-3.604v-2.332h3.604v-3.355h-3.604v-2.332h3.604v-1.836
	h9.613v1.836h3.6V300.359z M71.947,231.874l4.186-5.545h6.863l4.184,5.543l4.184-5.543h6.861l4.188,5.545v19.732l-4.188,5.547
	h-6.861l-4.184-5.545l-4.184,5.545h-6.863l-4.186-5.547V231.874z M63.87,311.54h-2.404v2.668H51.259v-2.668h-2.402v-2.332h2.402
	v-2.512h10.207v2.512h2.404V311.54z M70.808,289.876v6.863l-5.545,4.186H45.529l-5.545-4.186v-6.863l5.545-4.188h19.734
	L70.808,289.876z M42.204,208.126c8.631,0,15.627,6.996,15.627,15.625c0,8.631-6.996,15.627-15.627,15.627
	c-8.629,0-15.625-6.996-15.625-15.627C26.579,215.122,33.575,208.126,42.204,208.126z"/>
<path fill="#DBA56B" d="M42.204,239.378c8.631,0,15.627-6.996,15.627-15.627c0-8.629-6.996-15.625-15.627-15.625
	c-8.629,0-15.625,6.996-15.625,15.625C26.579,232.382,33.575,239.378,42.204,239.378z M42.204,211.751c6.627,0,12,5.373,12,12
	s-5.373,12-12,12s-12-5.373-12-12S35.577,211.751,42.204,211.751z"/>
<path fill="#9E9E9F" d="M42.204,235.751c6.627,0,12-5.373,12-12s-5.373-12-12-12s-12,5.373-12,12S35.577,235.751,42.204,235.751z
	 M42.204,219.001c2.623,0,4.75,2.127,4.75,4.75s-2.127,4.75-4.75,4.75s-4.75-2.127-4.75-4.75S39.581,219.001,42.204,219.001z"/>
<circle fill="#515457" cx="42.204" cy="223.751" r="4.75"/>
<path fill="#DBA56B" d="M-17.757,299.351c8.629,0,15.625-6.996,15.625-15.625c0-8.631-6.996-15.627-15.625-15.627
	c-5.095,0-9.606,2.449-12.459,6.223v18.809C-27.363,296.902-22.851,299.351-17.757,299.351z M-17.757,271.726
	c6.627,0,12,5.373,12,12s-5.373,12-12,12c-6.629,0-12-5.373-12-12S-24.385,271.726-17.757,271.726z"/>
<path fill="#9E9E9F" d="M-17.757,295.726c6.627,0,12-5.373,12-12s-5.373-12-12-12c-6.629,0-12,5.373-12,12
	S-24.385,295.726-17.757,295.726z M-17.757,278.976c2.623,0,4.75,2.127,4.75,4.75s-2.127,4.75-4.75,4.75
	c-2.625,0-4.75-2.127-4.75-4.75S-20.382,278.976-17.757,278.976z"/>
<circle fill="#515457" cx="-17.757" cy="283.726" r="4.75"/>
<polygon fill="#EEEEEF" points="116.269,298.702 116.269,268.736 131.386,268.738 131.386,265.734 113.261,265.732 113.261,301.706 
	131.386,301.708 131.386,298.704 "/>
<path fill="#EEEEEF" d="M142.032,285.779v12.926h-7.74v3.004h10.748v-16.633h-2.383C142.443,285.316,142.234,285.55,142.032,285.779
	z"/>
<path fill="#EEEEEF" d="M142.032,268.738v4.506c0.563-0.029,1.123-0.061,1.686-0.096c0.42-0.33,0.861-0.668,1.322-1.012v-6.402
	h-10.748v3.004H142.032z"/>
<polygon fill="#E5E5E6" points="131.386,268.738 134.292,268.738 134.292,268.738 134.292,265.734 134.292,265.728 131.386,265.728 
	131.386,265.734 131.386,268.738 "/>
<polygon fill="#E5E5E6" points="134.292,298.7 131.386,298.7 131.386,298.704 131.386,301.708 131.386,301.712 134.292,301.712 
	134.292,301.708 134.292,298.704 "/>
<linearGradient id="SVGID_1_" gradientUnits="userSpaceOnUse" x1="354.2512" y1="22.1653" x2="376.8665" y2="22.1653" gradientTransform="matrix(-1.346898e-010 1 1 1.346898e-010 -33.9287 -10.3711)">
	<stop  offset="0" style="stop-color:#A8CF6A"/>
	<stop  offset="0.2523" style="stop-color:#9FC765"/>
	<stop  offset="0.6624" style="stop-color:#87B259"/>
	<stop  offset="1" style="stop-color:#6E9C4C"/>
</linearGradient>
<path fill="url(#SVGID_1_)" d="M-21.973,356.288c0,5.637,4.57,10.207,10.207,10.207c5.639,0,10.213-4.568,10.213-10.207V343.88
	h-20.42V356.288z"/>
<polygon fill="#3E3A39" points="-1.032,311.902 -1.032,320.726 -2.643,320.726 -5.647,320.726 -7.257,320.726 -7.257,311.902 
	-16.266,311.902 -16.266,320.726 -17.872,320.726 -20.876,320.726 -22.497,320.726 -22.497,311.902 -23.768,311.902 -23.757,343.88 
	-21.973,343.88 -1.553,343.88 0.236,343.88 0.236,311.902 "/>
<rect x="-5.647" y="317.718" fill="#9E9E9F" width="3.004" height="3.008"/>
<rect x="-20.876" y="317.718" fill="#9E9E9F" width="3.004" height="3.008"/>
<path fill="#9E9E9F" d="M67.697,328.089v27.584v2.412h1.386l1.388-0.002l-0.001,0.002h3.216h32.982h3.202l-0.001-0.002l1.388,0.002
	h1.419v-2.41v-27.586H67.697z M107.636,346.089v2.391h-5.84v-2.391h1.207v-6.004h3.594v6.004H107.636z M98.732,331.093h8.992v3.004
	h-8.992V331.093z M72.636,331.093h8.992v3.004h-8.992V331.093z M72.626,346.089h1.207v-6.004h3.594v6.004h1.041v2.391h-5.842
	V346.089z"/>
<rect x="98.732" y="331.093" fill="#686D70" width="8.992" height="3.004"/>
<rect x="72.636" y="331.093" fill="#686D70" width="8.992" height="3.004"/>
<polygon fill="#686D70" points="78.468,346.089 77.427,346.089 77.427,340.085 73.833,340.085 73.833,346.089 72.626,346.089 
	72.626,348.48 78.468,348.48 "/>
<polygon fill="#686D70" points="103.003,340.085 103.003,346.089 101.796,346.089 101.796,348.48 107.636,348.48 107.636,346.089 
	106.597,346.089 106.597,340.085 "/>
<rect x="73.685" y="358.085" fill="#939494" width="32.982" height="3.594"/>
<polygon fill="#939494" points="69.082,358.085 67.695,358.087 66.087,361.579 68.38,362.634 70.469,358.085 70.47,358.083 "/>
<polygon fill="#939494" points="109.869,358.085 111.96,362.634 114.253,361.579 112.644,358.087 111.256,358.085 109.868,358.083 
	"/>
<polygon fill="#3E3A39" points="77.309,188.732 77.312,188.73 97.048,188.73 97.051,188.732 102.593,184.548 102.593,182.021 
	96.282,182.021 96.282,182.603 93.306,182.603 93.306,182.021 81.052,182.021 81.052,182.603 78.077,182.603 78.077,182.021 
	71.769,182.021 71.769,184.548 "/>
<rect x="93.306" y="182.021" fill="#C9A63A" width="2.977" height="0.582"/>
<rect x="78.077" y="182.021" fill="#C9A63A" width="2.975" height="0.582"/>
<path fill="#3E3A39" d="M77.312,188.73l-0.003,0.002l-5.54,4.184v6.861l5.54,4.186l0.003-0.002h19.736l0.003,0.002l5.542-4.186
	v-6.861l-5.542-4.184l-0.003-0.002H77.312z M81.052,197.833h-2.975v-2.977h2.975V197.833z M96.282,197.833h-2.977v-2.977h2.977
	V197.833z"/>
<rect x="93.306" y="194.857" fill="#C9A63A" width="2.977" height="2.977"/>
<rect x="78.077" y="194.857" fill="#C9A63A" width="2.975" height="2.977"/>
<path fill="#3E3A39" d="M77.312,203.96l-0.003,0.002l-5.54,4.184v6.863l5.543,4.184h19.736l5.545-4.184v-6.863l-5.542-4.184
	l-0.003-0.002H77.312z M81.052,213.066h-2.975v-2.977h2.975V213.066z M96.282,213.066h-2.977v-2.977h2.977V213.066z"/>
<rect x="93.306" y="210.089" fill="#C9A63A" width="2.977" height="2.977"/>
<rect x="78.077" y="210.089" fill="#C9A63A" width="2.975" height="2.977"/>
<path fill="#3E3A39" d="M87.181,251.607l-0.002,0.002l4.184,5.545h6.861l4.188-5.547v-19.732l-4.188-5.545h-6.861l-4.184,5.543
	l0.002,0.002V251.607z M93.306,232.638h2.977v2.975h-2.977V232.638z M93.306,247.865h2.977v2.977h-2.977V247.865z"/>
<rect x="93.306" y="247.865" fill="#C9A63A" width="2.977" height="2.977"/>
<rect x="93.306" y="232.638" fill="#C9A63A" width="2.977" height="2.975"/>
<path fill="#3E3A39" d="M82.995,257.154l4.184-5.545l0.002-0.002v-19.732l-0.002-0.002l-4.184-5.543h-6.863l-4.186,5.545v19.732
	l4.186,5.547H82.995z M78.075,232.638h2.975v2.975h-2.975V232.638z M78.075,247.865h2.975v2.977h-2.975V247.865z"/>
<rect x="78.075" y="247.865" fill="#C9A63A" width="2.975" height="2.977"/>
<rect x="78.075" y="232.638" fill="#C9A63A" width="2.975" height="2.975"/>
<path fill="#3E3A39" d="M39.984,289.876v6.863l5.545,4.186h19.734l5.545-4.186v-6.863l-5.545-4.188H45.529L39.984,289.876z
	 M61.525,291.82h2.977v2.977h-2.977V291.82z M46.294,291.82h2.977v2.977h-2.977V291.82z"/>
<rect x="46.294" y="291.82" fill="#C9A63A" width="2.977" height="2.977"/>
<rect x="61.525" y="291.82" fill="#C9A63A" width="2.977" height="2.977"/>
<path fill="#9E9E9F" d="M123.156,331.339c6.689,0,12.113-5.424,12.113-12.113c0-6.691-5.424-12.115-12.113-12.115
	c-6.691-0.002-12.115,5.422-12.115,12.113C111.04,325.913,116.464,331.337,123.156,331.339z M115.667,316.212l4.475,0.002v-4.477
	h6.025v4.477h4.475v6.023h-4.475v4.477h-6.025v-4.477l-4.475-0.002V316.212z"/>
<polygon fill="#686D70" points="120.142,326.714 126.167,326.714 126.167,322.238 130.642,322.238 130.642,316.214 126.167,316.214 
	126.167,311.738 120.142,311.738 120.142,316.214 115.667,316.212 115.667,322.236 120.142,322.238 "/>
<rect x="9.728" y="322.693" fill="#3E3A39" width="34.98" height="20.688"/>
<rect x="18.218" y="344.38" fill="#3E3A39" width="18" height="5.576"/>
<polygon fill="#9E9E9F" points="44.708,322.693 44.708,343.38 9.728,343.38 9.726,343.38 9.726,322.693 8.726,322.693 8.726,343.88 
	8.726,344.38 18.218,344.38 36.218,344.38 45.708,344.38 45.708,343.88 45.708,322.693 "/>
<rect x="118.062" y="191.104" fill="#3E3A39" width="18.018" height="12.01"/>
<polygon fill="#3E3A39" points="92.236,298.027 92.245,298.027 92.245,296.191 82.632,296.191 82.632,298.027 82.636,298.027 
	82.636,300.359 82.632,300.359 82.632,303.714 82.636,303.714 82.636,306.046 82.632,306.046 82.632,309.4 82.636,309.4 
	82.636,311.732 82.632,311.732 82.632,313.605 92.245,313.605 92.245,311.732 92.236,311.732 92.236,309.4 92.245,309.4 
	92.245,306.046 92.236,306.046 92.236,303.714 92.245,303.714 92.245,300.359 92.236,300.359 "/>
<polygon fill="#9E9E9F" points="92.236,298.027 92.236,300.359 92.245,300.359 95.845,300.359 95.845,298.027 92.245,298.027 "/>
<polygon fill="#9E9E9F" points="92.236,306.046 92.245,306.046 95.845,306.046 95.845,303.714 92.245,303.714 92.236,303.714 "/>
<polygon fill="#9E9E9F" points="92.236,311.732 92.245,311.732 95.845,311.732 95.845,309.4 92.245,309.4 92.236,309.4 "/>
<polygon fill="#9E9E9F" points="82.636,298.027 82.632,298.027 79.029,298.027 79.029,300.359 82.632,300.359 82.636,300.359 "/>
<polygon fill="#9E9E9F" points="82.636,303.714 82.632,303.714 79.029,303.714 79.029,306.046 82.632,306.046 82.636,306.046 "/>
<polygon fill="#9E9E9F" points="82.636,309.4 82.632,309.4 79.029,309.4 79.029,311.732 82.632,311.732 82.636,311.732 "/>
<polygon fill="#3E3A39" points="61.466,306.697 51.259,306.697 51.259,309.208 51.261,309.208 51.261,311.54 51.259,311.54 
	51.259,314.208 61.466,314.208 61.466,311.54 61.466,309.208 "/>
<rect x="61.466" y="309.208" fill="#9E9E9F" width="2.404" height="2.332"/>
<polygon fill="#9E9E9F" points="51.261,309.208 51.259,309.208 48.857,309.208 48.857,311.54 51.259,311.54 51.261,311.54 "/>
<rect x="123.919" y="221.923" fill="#DBD2A9" width="6.006" height="9.607"/>
<rect x="129.925" y="221.923" fill="#9E9E9F" width="3" height="9.607"/>
<rect x="120.919" y="221.923" fill="#9E9E9F" width="3" height="9.607"/>
<rect x="87.727" y="257.341" fill="none" width="28.139" height="16.787"/>
<text transform="matrix(1 0 0 1 87.7268 269.3547)" fill="#FFFFFF" font-family="'ArialMT'" font-size="14">JP1</text>
<rect x="61.063" y="257.335" fill="none" width="28.139" height="16.787"/>
<text transform="matrix(1 0 0 1 61.0627 269.3489)" fill="#FFFFFF" font-family="'ArialMT'" font-size="14">JP2</text>
<rect x="104.716" y="243.599" fill="none" width="9.481" height="14.484"/>
<text transform="matrix(1 0 0 1 104.7161 255.6125)" fill="#FFFFFF" font-family="'ArialMT'" font-size="14">1</text>
<rect x="104.716" y="226.884" fill="none" width="9.481" height="14.484"/>
<text transform="matrix(1 0 0 1 104.7161 238.8977)" fill="#FFFFFF" font-family="'ArialMT'" font-size="14">2</text>
<rect x="61.346" y="243.599" fill="none" width="9.481" height="14.484"/>
<text transform="matrix(1 0 0 1 61.3459 255.6125)" fill="#FFFFFF" font-family="'ArialMT'" font-size="14">1</text>
<rect x="61.346" y="226.884" fill="none" width="9.481" height="14.484"/>
<text transform="matrix(1 0 0 1 61.3459 238.8977)" fill="#FFFFFF" font-family="'ArialMT'" font-size="14">2</text>
<rect x="44.708" y="271.726" fill="none" width="28.139" height="16.787"/>
<text transform="matrix(1 0 0 1 44.7083 283.7395)" fill="#FFFFFF" font-family="'ArialMT'" font-size="14">JP3</text>
<rect x="70.391" y="286.39" fill="none" width="9.481" height="14.484"/>
<text transform="matrix(1 0 0 1 70.3909 298.4036)" fill="#FFFFFF" font-family="'ArialMT'" font-size="14">1</text>
<rect x="30.204" y="286.066" fill="none" width="9.481" height="14.484"/>
<text transform="matrix(1 0 0 1 30.2043 298.0793)" fill="#FFFFFF" font-family="'ArialMT'" font-size="14">2</text>
<rect x="142.032" y="272.036" fill="#EEEEEF" width="3.018" height="14.354"/>
<rect x="145.05" y="263.956" fill="#3E8A4B" width="13.4" height="18.705"/>
<rect x="128.413" y="275.999" fill="#C8C8C8" width="2.977" height="2.977"/>
<rect x="128.413" y="288.107" fill="#C8C8C8" width="2.977" height="2.977"/>
<g>
	<path fill="none" d="M158.482,263.542c2.646-1.354,5.469-2.563,8.387-3.596l2.668,7.541c-1.643,0.58-3.229,1.244-4.781,1.943
		c4.754-1.293,9.203-2.785,12.869-4.227c-2.74,0.627-5.445,1.352-8.084,2.285l-2.67-7.541c11.701-4.141,23.889-5.18,36.631-5.662
		c15.295-5.916,29.889-10.377,43.553-13.242c2.508-0.527,5.203-1.02,7.992-1.52V184.73c0-1.564-1.27-2.834-2.834-2.834h-94.281
		v81.936C158.118,263.734,158.29,263.64,158.482,263.542z"/>
	<path fill="none" d="M253.411,247.952c-1.637,0.303-3.213,0.607-4.717,0.922c-5.43,1.139-11.029,2.563-16.754,4.209
		c4.375-0.436,8.701-1.197,12.891-2.309C247.728,250.005,250.587,249.054,253.411,247.952z"/>
	<polygon fill="#EEEEEF" points="115.749,298.577 115.749,268.611 130.866,268.613 130.866,265.609 112.741,265.607 
		112.741,301.581 130.866,301.583 130.866,298.579 	"/>
	<path fill="#EEEEEF" d="M141.513,285.654v12.926h-7.74v3.004h10.748V284.95h-2.383
		C141.923,285.191,141.714,285.425,141.513,285.654z"/>
	<path fill="#EEEEEF" d="M141.513,268.613v4.506c0.563-0.029,1.123-0.061,1.686-0.096c0.42-0.33,0.861-0.668,1.322-1.012v-6.402
		h-10.748v3.004H141.513z"/>
	<path fill="#F7F7F7" d="M120.962,273.017h18.174v0.217c0.785-0.033,1.578-0.072,2.377-0.115v-4.506h-7.74l0,0h-2.906l0,0
		l-15.117-0.002v29.967l15.117,0.002v-0.004h2.906v0.004h7.74v-12.926c-0.133,0.15-0.266,0.303-0.395,0.449
		c-0.656,0.748-1.305,1.471-1.982,2.17v5.73h-18.174v-8.992h9.057c0.51-0.176,1.041-0.41,1.547-0.736
		c0.875-0.566,1.631-1.314,2.494-2.266h-13.098V273.017z"/>
	<path fill="#DBDCDC" d="M127.353,273.534c0.094,0,5.594-0.031,11.783-0.301v-0.217h-18.174v8.992h13.098
		c0.17-0.189,0.357-0.398,0.539-0.605c-3.971,0.111-6.93,0.129-7.211,0.131L127.353,273.534z"/>
	<path fill="#DBDCDC" d="M120.962,294.003h18.174v-5.73c-0.953,0.982-1.975,1.906-3.23,2.717c-3.891,2.52-8.129,2.525-8.6,2.518
		l0.127-8c0,0,1.207-0.02,2.586-0.496h-9.057V294.003z"/>
	<polygon fill="#E5E5E6" points="130.866,268.613 133.773,268.613 133.773,268.613 133.773,265.609 133.773,265.603 
		130.866,265.603 130.866,265.609 130.866,268.613 	"/>
	<path fill="#E5E5E6" d="M142.138,284.95h2.383h0.01v-2.502C143.609,283.343,142.833,284.173,142.138,284.95z"/>
	<polygon fill="#E5E5E6" points="133.773,298.575 130.866,298.575 130.866,298.579 130.866,301.583 130.866,301.587 
		133.773,301.587 133.773,301.583 133.773,298.579 	"/>
	<path fill="#E7380D" d="M231.941,253.083c-8.627,2.48-17.576,5.539-26.799,9.146c2.467-0.086,4.951-0.162,7.467-0.23
		c5.535-0.15,11.26-0.307,16.973-0.678c5.873-0.379,11.695-1.326,17.305-2.816l-2.055-7.73
		C240.642,251.886,236.316,252.648,231.941,253.083z"/>
	<path fill="#E7380D" d="M182.21,263.247c7.238-3.303,14.33-6.268,21.291-8.961c-12.742,0.482-24.93,1.521-36.631,5.662l2.67,7.541
		c2.639-0.934,5.344-1.658,8.084-2.285c1.359-0.535,2.621-1.063,3.736-1.57L182.21,263.247z"/>
	<path fill="#3E3A39" d="M203.501,254.286c-6.961,2.693-14.053,5.658-21.291,8.961l-0.85,0.387c-1.115,0.508-2.377,1.035-3.736,1.57
		c-3.666,1.441-8.115,2.934-12.869,4.227c-0.891,0.4-1.783,0.801-2.635,1.236c-7.865,4.018-12.607,7.359-15.826,10.162
		c2.359-0.18,4.617-0.402,6.527-0.686c1.691-0.25,3.4-0.555,5.109-0.893c10.242-2.031,20.461-5.48,26.74-8.334l0.861-0.393
		c6.666-3.041,13.195-5.785,19.609-8.295c9.223-3.607,18.172-6.666,26.799-9.146c5.725-1.646,11.324-3.07,16.754-4.209
		c1.504-0.314,3.08-0.619,4.717-0.922c0.547-0.213,1.09-0.441,1.635-0.666v-7.762c-2.789,0.5-5.484,0.992-7.992,1.52
		C233.39,243.909,218.796,248.37,203.501,254.286z"/>
	<path fill="#3E3A39" d="M139.136,273.234c-6.189,0.27-11.689,0.301-11.783,0.301l0.035,8c0.281-0.002,3.24-0.02,7.211-0.131
		c0.166-0.189,0.324-0.365,0.502-0.568c1.797-2.053,4.1-4.67,8.098-7.813c-0.563,0.035-1.123,0.066-1.686,0.096
		C140.714,273.161,139.921,273.2,139.136,273.234z"/>
	<path fill="#E7380D" d="M244.831,250.775l2.055,7.73c2.754-0.73,5.469-1.635,8.16-2.637v-8.582
		c-0.545,0.225-1.088,0.453-1.635,0.666C250.587,249.054,247.728,250.005,244.831,250.775z"/>
	<path fill="#E7380D" d="M162.12,270.667c0.852-0.436,1.744-0.836,2.635-1.236c1.553-0.699,3.139-1.363,4.781-1.943l-2.668-7.541
		c-2.918,1.033-5.74,2.242-8.387,3.596c-0.191,0.098-0.363,0.191-0.551,0.289c-5.842,3.016-10.141,5.746-13.41,8.18
		c-0.461,0.344-0.902,0.682-1.322,1.012c-3.998,3.143-6.301,5.76-8.098,7.813c-0.178,0.203-0.336,0.379-0.502,0.568
		c-0.182,0.207-0.369,0.416-0.539,0.605c-0.863,0.951-1.619,1.699-2.494,2.266c-0.506,0.326-1.037,0.561-1.547,0.736
		c-1.379,0.477-2.586,0.496-2.586,0.496l-0.127,8c0.471,0.008,4.709,0.002,8.6-2.518c1.256-0.811,2.277-1.734,3.23-2.717
		c0.678-0.699,1.326-1.422,1.982-2.17c0.129-0.146,0.262-0.299,0.395-0.449c0.201-0.229,0.41-0.463,0.625-0.703
		c0.695-0.777,1.471-1.607,2.393-2.502c0.533-0.518,1.121-1.059,1.764-1.619C149.513,278.027,154.255,274.685,162.12,270.667z"/>
</g>
<g>
	<g>
		<rect x="71.887" y="225.531" fill="#323232" width="15.156" height="32.42"/>
		<rect x="76.254" y="231.355" fill="#C8C8C8" width="2.16" height="20.17"/>
		<rect x="83.403" y="225.531" fill="#3C3C3C" width="3.641" height="11.648"/>
		<rect x="71.887" y="225.531" fill="#3C3C3C" width="15.156" height="5.432"/>
		<rect x="78.414" y="247.566" fill="#C9A63A" width="2.977" height="2.977"/>
		<rect x="78.414" y="232.339" fill="#C9A63A" width="2.977" height="2.975"/>
		<rect x="71.887" y="225.531" fill="#3C3C3C" width="3.641" height="11.648"/>
		<rect x="83.403" y="246.302" fill="#3C3C3C" width="3.641" height="11.648"/>
		<rect x="71.887" y="252.519" fill="#3C3C3C" width="15.156" height="5.432"/>
		<rect x="71.887" y="246.302" fill="#3C3C3C" width="3.641" height="11.648"/>
	</g>
	
		<line fill="#C8C8C8" stroke="#AAAAAA" stroke-width="0.1417" stroke-linecap="round" stroke-linejoin="round" stroke-miterlimit="10" x1="71.887" y1="225.531" x2="71.887" y2="257.95"/>
	
		<line fill="none" stroke="#AAAAAA" stroke-width="0.1417" stroke-linecap="round" stroke-linejoin="round" stroke-miterlimit="10" x1="71.887" y1="225.531" x2="87.043" y2="225.531"/>
	
		<line fill="none" stroke="#AAAAAA" stroke-width="0.1417" stroke-linecap="round" stroke-linejoin="round" stroke-miterlimit="10" x1="87.043" y1="225.531" x2="87.043" y2="257.95"/>
	
		<line fill="none" stroke="#AAAAAA" stroke-width="0.1417" stroke-linecap="round" stroke-linejoin="round" stroke-miterlimit="10" x1="87.043" y1="257.95" x2="71.887" y2="257.95"/>
</g>
<g>
	<g>
		<rect x="87.216" y="225.532" fill="#323232" width="15.156" height="32.42"/>
		<rect x="91.583" y="231.357" fill="#C8C8C8" width="2.16" height="20.17"/>
		<rect x="98.732" y="225.532" fill="#3C3C3C" width="3.641" height="11.648"/>
		<rect x="87.216" y="225.532" fill="#3C3C3C" width="15.156" height="5.432"/>
		<rect x="93.743" y="247.568" fill="#C9A63A" width="2.977" height="2.977"/>
		<rect x="93.743" y="232.341" fill="#C9A63A" width="2.977" height="2.975"/>
		<rect x="87.216" y="225.532" fill="#3C3C3C" width="3.641" height="11.648"/>
		<rect x="98.732" y="246.304" fill="#3C3C3C" width="3.641" height="11.648"/>
		<rect x="87.216" y="252.521" fill="#3C3C3C" width="15.156" height="5.432"/>
		<rect x="87.216" y="246.304" fill="#3C3C3C" width="3.641" height="11.648"/>
	</g>
	
		<line fill="#C8C8C8" stroke="#AAAAAA" stroke-width="0.1417" stroke-linecap="round" stroke-linejoin="round" stroke-miterlimit="10" x1="87.216" y1="225.532" x2="87.216" y2="257.952"/>
	
		<line fill="none" stroke="#AAAAAA" stroke-width="0.1417" stroke-linecap="round" stroke-linejoin="round" stroke-miterlimit="10" x1="87.216" y1="225.532" x2="102.372" y2="225.532"/>
	
		<line fill="none" stroke="#AAAAAA" stroke-width="0.1417" stroke-linecap="round" stroke-linejoin="round" stroke-miterlimit="10" x1="102.372" y1="225.532" x2="102.372" y2="257.952"/>
	
		<line fill="none" stroke="#AAAAAA" stroke-width="0.1417" stroke-linecap="round" stroke-linejoin="round" stroke-miterlimit="10" x1="102.372" y1="257.952" x2="87.216" y2="257.952"/>
</g>
</svg>
