<?xml version="1.0" encoding="utf-8"?>
<!-- Generator: Adobe Illustrator 15.1.0, SVG Export Plug-In . SVG Version: 6.00 Build 0)  -->
<!DOCTYPE svg PUBLIC "-//W3C//DTD SVG 1.1//EN" "http://www.w3.org/Graphics/SVG/1.1/DTD/svg11.dtd" [
	<!ENTITY ns_extend "http://ns.adobe.com/Extensibility/1.0/">
	<!ENTITY ns_ai "http://ns.adobe.com/AdobeIllustrator/10.0/">
	<!ENTITY ns_graphs "http://ns.adobe.com/Graphs/1.0/">
	<!ENTITY ns_vars "http://ns.adobe.com/Variables/1.0/">
	<!ENTITY ns_imrep "http://ns.adobe.com/ImageReplacement/1.0/">
	<!ENTITY ns_sfw "http://ns.adobe.com/SaveForWeb/1.0/">
	<!ENTITY ns_custom "http://ns.adobe.com/GenericCustomNamespace/1.0/">
	<!ENTITY ns_adobe_xpath "http://ns.adobe.com/XPath/1.0/">
]>
<svg version="1.1" id="レイヤー_1" xmlns:x="&ns_extend;" xmlns:i="&ns_ai;" xmlns:graph="&ns_graphs;"
	 xmlns="http://www.w3.org/2000/svg" xmlns:xlink="http://www.w3.org/1999/xlink" x="0px" y="0px" width="1183.854px"
	 height="176.873px" viewBox="0 0 1183.854 176.873" enable-background="new 0 0 1183.854 176.873" xml:space="preserve">
<metadata>
	<sfw  xmlns="&ns_sfw;">
		<slices></slices>
		<sliceSourceBounds  height="651.753" width="1165.854" y="75.12" x="18" bottomLeftOrigin="true"></sliceSourceBounds>
	</sfw>
</metadata>
<g>
	<g>
		<defs>
			<rect id="SVGID_1_" x="18" y="-106.2" width="581.76" height="466.08"/>
		</defs>
		<clipPath id="SVGID_2_">
			<use xlink:href="#SVGID_1_"  overflow="visible"/>
		</clipPath>
	</g>
	<g>
		<defs>
			<rect id="SVGID_3_" x="18" y="-106.2" width="581.76" height="466.08"/>
		</defs>
		<clipPath id="SVGID_4_">
			<use xlink:href="#SVGID_3_"  overflow="visible"/>
		</clipPath>
		<g clip-path="url(#SVGID_4_)">
			<defs>
				<rect id="SVGID_5_" x="295.1" y="16.53" width="25.281" height="146.3"/>
			</defs>
			<clipPath id="SVGID_6_">
				<use xlink:href="#SVGID_5_"  overflow="visible"/>
			</clipPath>
			<g transform="matrix(1 0 0 1 1.352321e-005 -7.059512e-007)" clip-path="url(#SVGID_6_)">
				
					<image overflow="visible" width="64" height="381" xlink:href="4C554F32.jpg"  transform="matrix(0.395 0 0 0.384 295.1001 16.5298)">
				</image>
			</g>
		</g>
	</g>
	<line fill="none" stroke="#000000" stroke-width="2.25" stroke-miterlimit="10" x1="396.05" y1="119.52" x2="512.21" y2="119.52"/>
	<line fill="none" stroke="#000000" stroke-width="2.25" stroke-miterlimit="10" x1="396.12" y1="131.49" x2="512.28" y2="131.49"/>
	<line fill="none" stroke="#000000" stroke-width="2.25" stroke-miterlimit="10" x1="396.19" y1="144.14" x2="512.35" y2="144.14"/>
	<line fill="none" stroke="#000000" stroke-width="2.25" stroke-miterlimit="10" x1="396.26" y1="155.91" x2="512.42" y2="155.91"/>
	<line fill="none" stroke="#000000" stroke-width="2.25" stroke-miterlimit="10" x1="395.52" y1="72.21" x2="511.68" y2="72.21"/>
	<line fill="none" stroke="#000000" stroke-width="2.25" stroke-miterlimit="10" x1="395.59" y1="84.18" x2="511.75" y2="84.18"/>
	<line fill="none" stroke="#000000" stroke-width="2.25" stroke-miterlimit="10" x1="395.66" y1="96.83" x2="511.82" y2="96.83"/>
	<line fill="none" stroke="#000000" stroke-width="2.25" stroke-miterlimit="10" x1="395.72" y1="108.46" x2="511.88" y2="108.46"/>
	<line fill="none" stroke="#000000" stroke-width="2.25" stroke-miterlimit="10" x1="119.93" y1="121.18" x2="236.09" y2="121.18"/>
	<line fill="none" stroke="#000000" stroke-width="2.25" stroke-miterlimit="10" x1="119.99" y1="133.14" x2="236.15" y2="133.14"/>
	<line fill="none" stroke="#000000" stroke-width="2.25" stroke-miterlimit="10" x1="120.03" y1="145.79" x2="236.19" y2="145.79"/>
	<line fill="none" stroke="#000000" stroke-width="2.25" stroke-miterlimit="10" x1="120.1" y1="157.42" x2="236.26" y2="157.42"/>
	<line fill="none" stroke="#000000" stroke-width="2.25" stroke-miterlimit="10" x1="119.64" y1="72.27" x2="235.83" y2="72.27"/>
	<line fill="none" stroke="#000000" stroke-width="2.25" stroke-miterlimit="10" x1="119.71" y1="84.39" x2="235.87" y2="84.39"/>
	<line fill="none" stroke="#000000" stroke-width="2.25" stroke-miterlimit="10" x1="119.78" y1="96.89" x2="235.94" y2="96.89"/>
	<line fill="none" stroke="#000000" stroke-width="2.25" stroke-miterlimit="10" x1="119.84" y1="108.67" x2="236" y2="108.67"/>
	<line fill="none" stroke="#000000" stroke-width="2.25" stroke-miterlimit="10" x1="395.86" y1="23.01" x2="512.02" y2="23.01"/>
	<line fill="none" stroke="#000000" stroke-width="2.25" stroke-miterlimit="10" x1="395.9" y1="34.98" x2="512.06" y2="34.98"/>
	<line fill="none" stroke="#000000" stroke-width="2.25" stroke-miterlimit="10" x1="395.25" y1="47" x2="511.41" y2="47"/>
	<line fill="none" stroke="#000000" stroke-width="2.25" stroke-miterlimit="10" x1="396.04" y1="59.91" x2="512.2" y2="59.91"/>
	<line fill="none" stroke="#000000" stroke-width="2.25" stroke-miterlimit="10" x1="119.98" y1="22.7" x2="236.14" y2="22.7"/>
	<line fill="none" stroke="#000000" stroke-width="2.25" stroke-miterlimit="10" x1="120.02" y1="34.7" x2="236.18" y2="34.7"/>
	<line fill="none" stroke="#000000" stroke-width="2.25" stroke-miterlimit="10" x1="120.09" y1="47.32" x2="236.25" y2="47.32"/>
	<line fill="none" stroke="#000000" stroke-width="2.25" stroke-miterlimit="10" x1="120.16" y1="58.97" x2="236.32" y2="58.97"/>
	<path fill-rule="evenodd" clip-rule="evenodd" fill="#FFC000" d="M221.21,23.5c0-4.03,3.27-7.3,7.3-7.3h29.2
		c4.03,0,7.29,3.27,7.29,7.3v34.36c0,4.03-3.26,7.3-7.29,7.3h-29.2c-4.03,0-7.3-3.27-7.3-7.3V23.5z"/>
	<path fill="none" stroke="#ED7D31" stroke-miterlimit="10" d="M221.21,23.5c0-4.03,3.27-7.3,7.3-7.3h29.2
		c4.03,0,7.29,3.27,7.29,7.3v34.36c0,4.03-3.26,7.3-7.29,7.3h-29.2c-4.03,0-7.3-3.27-7.3-7.3V23.5z"/>
	<g>
		<defs>
			<rect id="SVGID_7_" x="18" y="-106.2" width="581.76" height="466.08"/>
		</defs>
		<clipPath id="SVGID_8_">
			<use xlink:href="#SVGID_7_"  overflow="visible"/>
		</clipPath>
		<g clip-path="url(#SVGID_8_)">
			<text transform="matrix(1 0 0 1 231.1899 44.7798)"><tspan x="0" y="0" font-family="'Calibri'" font-size="12">AI</tspan><tspan x="9.967" y="0" font-family="'Calibri'" font-size="12">N</tspan><tspan x="17.737" y="0" font-family="'Calibri'" font-size="12">1</tspan></text>
		</g>
	</g>
	<path fill-rule="evenodd" clip-rule="evenodd" fill="#FFC000" d="M133.93,42.72c0-1.13,0.91-2.04,2.04-2.04h68.52
		c1.12,0,2.04,0.91,2.04,2.04v8.16c0,1.13-0.92,2.04-2.04,2.04h-68.52c-1.13,0-2.04-0.91-2.04-2.04V42.72z"/>
	<path fill="none" stroke="#ED7D31" stroke-miterlimit="10" d="M133.93,42.72c0-1.13,0.91-2.04,2.04-2.04h68.52
		c1.12,0,2.04,0.91,2.04,2.04v8.16c0,1.13-0.92,2.04-2.04,2.04h-68.52c-1.13,0-2.04-0.91-2.04-2.04V42.72z"/>
	<g>
		<defs>
			<rect id="SVGID_9_" x="134.52" y="41.28" width="71.4" height="11.04"/>
		</defs>
		<clipPath id="SVGID_10_">
			<use xlink:href="#SVGID_9_"  overflow="visible"/>
		</clipPath>
		<g clip-path="url(#SVGID_10_)">
			<text transform="matrix(1 0 0 1 163.73 50.8999)"><tspan x="0" y="0" font-family="'Calibri'" font-size="12">A</tspan><tspan x="6.956" y="0" font-family="'Calibri'" font-size="12">1</tspan></text>
		</g>
	</g>
	<path fill-rule="evenodd" clip-rule="evenodd" fill="#FFC000" d="M133.93,54.96c0-1.13,0.91-2.04,2.04-2.04h68.52
		c1.12,0,2.04,0.91,2.04,2.04v8.16c0,1.13-0.92,2.04-2.04,2.04h-68.52c-1.13,0-2.04-0.91-2.04-2.04V54.96z"/>
	<path fill="none" stroke="#ED7D31" stroke-miterlimit="10" d="M133.93,54.96c0-1.13,0.91-2.04,2.04-2.04h68.52
		c1.12,0,2.04,0.91,2.04,2.04v8.16c0,1.13-0.92,2.04-2.04,2.04h-68.52c-1.13,0-2.04-0.91-2.04-2.04V54.96z"/>
	<g>
		<defs>
			<rect id="SVGID_11_" x="134.52" y="53.52" width="71.4" height="11.04"/>
		</defs>
		<clipPath id="SVGID_12_">
			<use xlink:href="#SVGID_11_"  overflow="visible"/>
		</clipPath>
		<g clip-path="url(#SVGID_12_)">
			<text transform="matrix(1 0 0 1 163.73 63.1401)" font-family="'Calibri'" font-size="12.024">A0</text>
		</g>
	</g>
	<path fill-rule="evenodd" clip-rule="evenodd" fill="#FFC000" d="M352.12,23.68c0-3.99,3.24-7.23,7.24-7.23h28.93
		c3.99,0,7.23,3.24,7.23,7.23v34.25c0,3.99-3.24,7.23-7.23,7.23h-28.93c-4,0-7.24-3.24-7.24-7.23V23.68z"/>
	<path fill="none" stroke="#ED7D31" stroke-miterlimit="10" d="M352.12,23.68c0-3.99,3.24-7.23,7.24-7.23h28.93
		c3.99,0,7.23,3.24,7.23,7.23v34.25c0,3.99-3.24,7.23-7.23,7.23h-28.93c-4,0-7.24-3.24-7.24-7.23V23.68z"/>
	<g>
		<defs>
			<rect id="SVGID_13_" x="18" y="-106.2" width="581.76" height="466.08"/>
		</defs>
		<clipPath id="SVGID_14_">
			<use xlink:href="#SVGID_13_"  overflow="visible"/>
		</clipPath>
		<g clip-path="url(#SVGID_14_)">
			<text transform="matrix(1 0 0 1 361.8701 44.8999)"><tspan x="0" y="0" font-family="'Calibri'" font-size="12">AI</tspan><tspan x="9.967" y="0" font-family="'Calibri'" font-size="12">N</tspan><tspan x="17.737" y="0" font-family="'Calibri'" font-size="12">2</tspan></text>
		</g>
	</g>
	<path fill-rule="evenodd" clip-rule="evenodd" fill="#FFC000" d="M410.04,42.75c0-1.14,0.93-2.07,2.07-2.07h68.59
		c1.149,0,2.069,0.93,2.069,2.07v8.29c0,1.15-0.92,2.08-2.069,2.08h-68.59c-1.14,0-2.07-0.93-2.07-2.08V42.75z"/>
	<path fill="none" stroke="#ED7D31" stroke-miterlimit="10" d="M410.04,42.75c0-1.14,0.93-2.07,2.07-2.07h68.59
		c1.149,0,2.069,0.93,2.069,2.07v8.29c0,1.15-0.92,2.08-2.069,2.08h-68.59c-1.14,0-2.07-0.93-2.07-2.08V42.75z"/>
	<g>
		<defs>
			<rect id="SVGID_15_" x="410.64" y="41.28" width="71.52" height="11.28"/>
		</defs>
		<clipPath id="SVGID_16_">
			<use xlink:href="#SVGID_15_"  overflow="visible"/>
		</clipPath>
		<g clip-path="url(#SVGID_16_)">
			<text transform="matrix(1 0 0 1 439.8701 51)"><tspan x="0" y="0" font-family="'Calibri'" font-size="12">A</tspan><tspan x="6.955" y="0" font-family="'Calibri'" font-size="12">3</tspan></text>
		</g>
	</g>
	<path fill-rule="evenodd" clip-rule="evenodd" fill="#FFC000" d="M410.04,54.96c0-1.13,0.91-2.04,2.04-2.04h68.65
		c1.13,0,2.039,0.91,2.039,2.04v8.16c0,1.13-0.909,2.04-2.039,2.04h-68.65c-1.13,0-2.04-0.91-2.04-2.04V54.96z"/>
	<path fill="none" stroke="#ED7D31" stroke-miterlimit="10" d="M410.04,54.96c0-1.13,0.91-2.04,2.04-2.04h68.65
		c1.13,0,2.039,0.91,2.039,2.04v8.16c0,1.13-0.909,2.04-2.039,2.04h-68.65c-1.13,0-2.04-0.91-2.04-2.04V54.96z"/>
	<g>
		<defs>
			<rect id="SVGID_17_" x="410.64" y="53.52" width="71.52" height="11.04"/>
		</defs>
		<clipPath id="SVGID_18_">
			<use xlink:href="#SVGID_17_"  overflow="visible"/>
		</clipPath>
		<g clip-path="url(#SVGID_18_)">
			<text transform="matrix(1 0 0 1 439.8701 63.1401)" font-family="'Calibri'" font-size="12.024">A2</text>
		</g>
	</g>
	<path fill-rule="evenodd" clip-rule="evenodd" fill="#FFC000" d="M221.31,72.44c0-4.02,3.26-7.28,7.28-7.28h29.13
		c4.02,0,7.28,3.26,7.28,7.28v34.4c0,4.02-3.26,7.28-7.28,7.28h-29.13c-4.02,0-7.28-3.26-7.28-7.28V72.44z"/>
	<path fill="none" stroke="#ED7D31" stroke-miterlimit="10" d="M221.31,72.44c0-4.02,3.26-7.28,7.28-7.28h29.13
		c4.02,0,7.28,3.26,7.28,7.28v34.4c0,4.02-3.26,7.28-7.28,7.28h-29.13c-4.02,0-7.28-3.26-7.28-7.28V72.44z"/>
	<g>
		<defs>
			<rect id="SVGID_19_" x="18" y="-106.2" width="581.76" height="466.08"/>
		</defs>
		<clipPath id="SVGID_20_">
			<use xlink:href="#SVGID_19_"  overflow="visible"/>
		</clipPath>
		<g clip-path="url(#SVGID_20_)">
			<text transform="matrix(1 0 0 1 231.29 93.77)"><tspan x="0" y="0" font-family="'Calibri'" font-size="12">AI</tspan><tspan x="9.967" y="0" font-family="'Calibri'" font-size="12">N</tspan><tspan x="17.737" y="0" font-family="'Calibri'" font-size="12">3</tspan></text>
		</g>
	</g>
	<path fill-rule="evenodd" clip-rule="evenodd" fill="#FFC000" d="M133.93,92.41c0-1.12,0.91-2.04,2.04-2.04h68.75
		c1.13,0,2.04,0.92,2.04,2.04v8.16c0,1.13-0.91,2.04-2.04,2.04h-68.75c-1.13,0-2.04-0.91-2.04-2.04V92.41z"/>
	<path fill="none" stroke="#ED7D31" stroke-miterlimit="10" d="M133.93,92.41c0-1.12,0.91-2.04,2.04-2.04h68.75
		c1.13,0,2.04,0.92,2.04,2.04v8.16c0,1.13-0.91,2.04-2.04,2.04h-68.75c-1.13,0-2.04-0.91-2.04-2.04V92.41z"/>
	<g>
		<defs>
			<rect id="SVGID_21_" x="134.52" y="90.96" width="71.64" height="11.04"/>
		</defs>
		<clipPath id="SVGID_22_">
			<use xlink:href="#SVGID_21_"  overflow="visible"/>
		</clipPath>
		<g clip-path="url(#SVGID_22_)">
			<text transform="matrix(1 0 0 1 163.8501 100.6099)"><tspan x="0" y="0" font-family="'Calibri'" font-size="12">A</tspan><tspan x="6.956" y="0" font-family="'Calibri'" font-size="12">5</tspan></text>
		</g>
	</g>
	<path fill-rule="evenodd" clip-rule="evenodd" fill="#FFC000" d="M133.93,104.65c0-1.12,0.91-2.04,2.04-2.04h68.75
		c1.13,0,2.04,0.92,2.04,2.04v8.16c0,1.13-0.91,2.04-2.04,2.04h-68.75c-1.13,0-2.04-0.91-2.04-2.04V104.65z"/>
	<path fill="none" stroke="#ED7D31" stroke-miterlimit="10" d="M133.93,104.65c0-1.12,0.91-2.04,2.04-2.04h68.75
		c1.13,0,2.04,0.92,2.04,2.04v8.16c0,1.13-0.91,2.04-2.04,2.04h-68.75c-1.13,0-2.04-0.91-2.04-2.04V104.65z"/>
	<g>
		<defs>
			<rect id="SVGID_23_" x="134.52" y="103.2" width="71.64" height="11.04"/>
		</defs>
		<clipPath id="SVGID_24_">
			<use xlink:href="#SVGID_23_"  overflow="visible"/>
		</clipPath>
		<g clip-path="url(#SVGID_24_)">
			<text transform="matrix(1 0 0 1 163.8501 112.8701)"><tspan x="0" y="0" font-family="'Calibri'" font-size="12">A</tspan><tspan x="6.956" y="0" font-family="'Calibri'" font-size="12">4</tspan></text>
		</g>
	</g>
	<path fill-rule="evenodd" clip-rule="evenodd" fill="#FFC000" d="M32.623,54.96c0-1.13,0.914-2.04,2.04-2.04h82.707
		c1.12,0,2.04,0.91,2.04,2.04v8.16c0,1.13-0.92,2.04-2.04,2.04H34.663c-1.126,0-2.04-0.91-2.04-2.04V54.96z"/>
	<path fill="none" stroke="#ED7D31" stroke-miterlimit="10" d="M32.623,54.96c0-1.13,0.914-2.04,2.04-2.04h82.707
		c1.12,0,2.04,0.91,2.04,2.04v8.16c0,1.13-0.92,2.04-2.04,2.04H34.663c-1.126,0-2.04-0.91-2.04-2.04V54.96z"/>
	<g>
		<defs>
			<rect id="SVGID_25_" x="33.24" y="53.52" width="85.56" height="11.04"/>
		</defs>
		<clipPath id="SVGID_26_">
			<use xlink:href="#SVGID_25_"  overflow="visible"/>
		</clipPath>
		<g clip-path="url(#SVGID_26_)">
			<text transform="matrix(1 0 0 1 40.4399 62.8101)"><tspan x="0" y="0" font-family="'Calibri'" font-size="11.04">P</tspan><tspan x="5.748" y="0" font-family="'Calibri'" font-size="11.04">0</tspan><tspan x="11.376" y="0" font-family="'Calibri'" font-size="11.04">.0</tspan><tspan x="19.758" y="0" font-family="'Calibri'" font-size="11.04">2</tspan><tspan x="25.409" y="0" font-family="'Calibri'" font-size="11.04">_AI</tspan><tspan x="40.077" y="0" font-family="'Calibri'" font-size="11.04">N</tspan><tspan x="47.126" y="0" font-family="'Calibri'" font-size="11.04">0</tspan></text>
		</g>
	</g>
	<path fill-rule="evenodd" clip-rule="evenodd" fill="#FFC000" d="M32.52,42.72c0-1.13,0.913-2.04,2.04-2.04h83.04
		c1.13,0,2.04,0.91,2.04,2.04v8.16c0,1.13-0.91,2.04-2.04,2.04H34.56c-1.127,0-2.04-0.91-2.04-2.04V42.72z"/>
	<path fill="none" stroke="#ED7D31" stroke-miterlimit="10" d="M32.52,42.72c0-1.13,0.913-2.04,2.04-2.04h83.04
		c1.13,0,2.04,0.91,2.04,2.04v8.16c0,1.13-0.91,2.04-2.04,2.04H34.56c-1.127,0-2.04-0.91-2.04-2.04V42.72z"/>
	<g>
		<defs>
			<rect id="SVGID_27_" x="33.12" y="41.28" width="85.92" height="11.04"/>
		</defs>
		<clipPath id="SVGID_28_">
			<use xlink:href="#SVGID_27_"  overflow="visible"/>
		</clipPath>
		<g clip-path="url(#SVGID_28_)">
			<text transform="matrix(1 0 0 1 40.3442 50.5698)"><tspan x="0" y="0" font-family="'Calibri'" font-size="11.04">P</tspan><tspan x="5.748" y="0" font-family="'Calibri'" font-size="11.04">0</tspan><tspan x="11.376" y="0" font-family="'Calibri'" font-size="11.04">.2</tspan><tspan x="19.758" y="0" font-family="'Calibri'" font-size="11.04">9</tspan><tspan x="25.409" y="0" font-family="'Calibri'" font-size="11.04">_AI</tspan><tspan x="40.077" y="0" font-family="'Calibri'" font-size="11.04">N</tspan><tspan x="47.126" y="0" font-family="'Calibri'" font-size="11.04">5</tspan></text>
		</g>
	</g>
	<path fill-rule="evenodd" clip-rule="evenodd" fill="#FFC000" d="M497.16,42.72c0-1.13,0.91-2.04,2.04-2.04h82.939
		c1.13,0,2.04,0.91,2.04,2.04v8.16c0,1.13-0.91,2.04-2.04,2.04H499.2c-1.13,0-2.04-0.91-2.04-2.04V42.72z"/>
	<path fill="none" stroke="#ED7D31" stroke-miterlimit="10" d="M497.16,42.72c0-1.13,0.91-2.04,2.04-2.04h82.939
		c1.13,0,2.04,0.91,2.04,2.04v8.16c0,1.13-0.91,2.04-2.04,2.04H499.2c-1.13,0-2.04-0.91-2.04-2.04V42.72z"/>
	<g>
		<defs>
			<rect id="SVGID_29_" x="497.76" y="41.28" width="85.8" height="11.04"/>
		</defs>
		<clipPath id="SVGID_30_">
			<use xlink:href="#SVGID_29_"  overflow="visible"/>
		</clipPath>
		<g clip-path="url(#SVGID_30_)">
			<text transform="matrix(1 0 0 1 505.0303 50.5698)"><tspan x="0" y="0" font-family="'Calibri'" font-size="11.04">P</tspan><tspan x="5.747" y="0" font-family="'Calibri'" font-size="11.04">0</tspan><tspan x="11.376" y="0" font-family="'Calibri'" font-size="11.04">.3</tspan><tspan x="19.759" y="0" font-family="'Calibri'" font-size="11.04">1</tspan><tspan x="25.409" y="0" font-family="'Calibri'" font-size="11.04">_AI</tspan><tspan x="40.077" y="0" font-family="'Calibri'" font-size="11.04">N</tspan><tspan x="47.126" y="0" font-family="'Calibri'" font-size="11.04">7</tspan></text>
		</g>
	</g>
	<path fill-rule="evenodd" clip-rule="evenodd" fill="#FFC000" d="M497.16,54.96c0-1.13,0.91-2.04,2.04-2.04h83.04
		c1.13,0,2.04,0.91,2.04,2.04v8.16c0,1.13-0.91,2.04-2.04,2.04H499.2c-1.13,0-2.04-0.91-2.04-2.04V54.96z"/>
	<path fill="none" stroke="#ED7D31" stroke-miterlimit="10" d="M497.16,54.96c0-1.13,0.91-2.04,2.04-2.04h83.04
		c1.13,0,2.04,0.91,2.04,2.04v8.16c0,1.13-0.91,2.04-2.04,2.04H499.2c-1.13,0-2.04-0.91-2.04-2.04V54.96z"/>
	<g>
		<defs>
			<rect id="SVGID_31_" x="497.76" y="53.52" width="85.92" height="11.04"/>
		</defs>
		<clipPath id="SVGID_32_">
			<use xlink:href="#SVGID_31_"  overflow="visible"/>
		</clipPath>
		<g clip-path="url(#SVGID_32_)">
			<text transform="matrix(1 0 0 1 505.0303 62.8101)"><tspan x="0" y="0" font-family="'Calibri'" font-size="11.04">P</tspan><tspan x="5.747" y="0" font-family="'Calibri'" font-size="11.04">0</tspan><tspan x="11.376" y="0" font-family="'Calibri'" font-size="11.04">.2</tspan><tspan x="19.759" y="0" font-family="'Calibri'" font-size="11.04">8</tspan><tspan x="25.409" y="0" font-family="'Calibri'" font-size="11.04">_AI</tspan><tspan x="40.077" y="0" font-family="'Calibri'" font-size="11.04">N</tspan><tspan x="47.126" y="0" font-family="'Calibri'" font-size="11.04">4</tspan></text>
		</g>
	</g>
	<path fill-rule="evenodd" clip-rule="evenodd" fill="#FFC000" d="M32.52,92.41c0-1.12,0.913-2.04,2.04-2.04h83.04
		c1.13,0,2.04,0.92,2.04,2.04v8.16c0,1.13-0.91,2.04-2.04,2.04H34.56c-1.127,0-2.04-0.91-2.04-2.04V92.41z"/>
	<path fill="none" stroke="#ED7D31" stroke-miterlimit="10" d="M32.52,92.41c0-1.12,0.913-2.04,2.04-2.04h83.04
		c1.13,0,2.04,0.92,2.04,2.04v8.16c0,1.13-0.91,2.04-2.04,2.04H34.56c-1.127,0-2.04-0.91-2.04-2.04V92.41z"/>
	<g>
		<defs>
			<rect id="SVGID_33_" x="33.12" y="90.96" width="85.92" height="11.04"/>
		</defs>
		<clipPath id="SVGID_34_">
			<use xlink:href="#SVGID_33_"  overflow="visible"/>
		</clipPath>
		<g clip-path="url(#SVGID_34_)">
			<text transform="matrix(1 0 0 1 40.3442 100.27)"><tspan x="0" y="0" font-family="'Calibri'" font-size="11.04">P</tspan><tspan x="5.748" y="0" font-family="'Calibri'" font-size="11.04">0</tspan><tspan x="11.376" y="0" font-family="'Calibri'" font-size="11.04">.0</tspan><tspan x="19.758" y="0" font-family="'Calibri'" font-size="11.04">5</tspan><tspan x="25.409" y="0" font-family="'Calibri'" font-size="11.04">_AI</tspan><tspan x="40.077" y="0" font-family="'Calibri'" font-size="11.04">N</tspan><tspan x="47.126" y="0" font-family="'Calibri'" font-size="11.04">3</tspan></text>
		</g>
	</g>
	<path fill-rule="evenodd" clip-rule="evenodd" fill="#FFC000" d="M32.52,104.65c0-1.12,0.913-2.04,2.04-2.04h83.04
		c1.13,0,2.04,0.92,2.04,2.04v8.16c0,1.13-0.91,2.04-2.04,2.04H34.56c-1.127,0-2.04-0.91-2.04-2.04V104.65z"/>
	<path fill="none" stroke="#ED7D31" stroke-miterlimit="10" d="M32.52,104.65c0-1.12,0.913-2.04,2.04-2.04h83.04
		c1.13,0,2.04,0.92,2.04,2.04v8.16c0,1.13-0.91,2.04-2.04,2.04H34.56c-1.127,0-2.04-0.91-2.04-2.04V104.65z"/>
	<g>
		<defs>
			<rect id="SVGID_35_" x="33.12" y="103.2" width="85.92" height="11.04"/>
		</defs>
		<clipPath id="SVGID_36_">
			<use xlink:href="#SVGID_35_"  overflow="visible"/>
		</clipPath>
		<g clip-path="url(#SVGID_36_)">
			<text transform="matrix(1 0 0 1 40.3442 112.5098)"><tspan x="0" y="0" font-family="'Calibri'" font-size="11.04">P</tspan><tspan x="5.748" y="0" font-family="'Calibri'" font-size="11.04">0</tspan><tspan x="11.376" y="0" font-family="'Calibri'" font-size="11.04">.3</tspan><tspan x="19.758" y="0" font-family="'Calibri'" font-size="11.04">0</tspan><tspan x="25.409" y="0" font-family="'Calibri'" font-size="11.04">_AI</tspan><tspan x="40.077" y="0" font-family="'Calibri'" font-size="11.04">N</tspan><tspan x="47.126" y="0" font-family="'Calibri'" font-size="11.04">6</tspan></text>
		</g>
	</g>
	<path fill-rule="evenodd" clip-rule="evenodd" fill="#5CD4FE" d="M221.1,121.41c0-4.03,3.27-7.29,7.29-7.29h29.16
		c4.03,0,7.29,3.26,7.29,7.29v34.96c0,4.02-3.26,7.29-7.29,7.29h-29.16c-4.02,0-7.29-3.271-7.29-7.29V121.41z"/>
	<path fill="none" stroke="#2E75B6" stroke-miterlimit="10" d="M221.1,121.41c0-4.03,3.27-7.29,7.29-7.29h29.16
		c4.03,0,7.29,3.26,7.29,7.29v34.96c0,4.02-3.26,7.29-7.29,7.29h-29.16c-4.02,0-7.29-3.271-7.29-7.29V121.41z"/>
	<g>
		<defs>
			<rect id="SVGID_37_" x="18" y="-106.2" width="581.76" height="466.08"/>
		</defs>
		<clipPath id="SVGID_38_">
			<use xlink:href="#SVGID_37_"  overflow="visible"/>
		</clipPath>
		<g clip-path="url(#SVGID_38_)">
			<text transform="matrix(1 0 0 1 230.71 143.0195)"><tspan x="0" y="0" font-family="'Calibri'" font-size="12">D</tspan><tspan x="7.419" y="0" font-family="'Calibri'" font-size="12">I</tspan><tspan x="10.442" y="0" font-family="'Calibri'" font-size="12">O</tspan><tspan x="18.339" y="0" font-family="'Calibri'" font-size="12">1</tspan></text>
		</g>
	</g>
	<path fill-rule="evenodd" clip-rule="evenodd" fill="#5CD4FE" d="M352.07,72.33c0-3.96,3.21-7.17,7.17-7.17h28.7
		c3.96,0,7.17,3.21,7.17,7.17v34.62c0,3.96-3.21,7.17-7.17,7.17h-28.7c-3.96,0-7.17-3.21-7.17-7.17V72.33z"/>
	<path fill="none" stroke="#2E75B6" stroke-miterlimit="10" d="M352.07,72.33c0-3.96,3.21-7.17,7.17-7.17h28.7
		c3.96,0,7.17,3.21,7.17,7.17v34.62c0,3.96-3.21,7.17-7.17,7.17h-28.7c-3.96,0-7.17-3.21-7.17-7.17V72.33z"/>
	<g>
		<defs>
			<rect id="SVGID_39_" x="354.12" y="67.2" width="38.88" height="44.76"/>
		</defs>
		<clipPath id="SVGID_40_">
			<use xlink:href="#SVGID_39_"  overflow="visible"/>
		</clipPath>
		<g clip-path="url(#SVGID_40_)">
			<text transform="matrix(1 0 0 1 361.4199 93.77)"><tspan x="0" y="0" font-family="'Calibri'" font-size="12">D</tspan><tspan x="7.419" y="0" font-family="'Calibri'" font-size="12">I</tspan><tspan x="10.442" y="0" font-family="'Calibri'" font-size="12">O</tspan><tspan x="18.339" y="0" font-family="'Calibri'" font-size="12">2</tspan></text>
		</g>
	</g>
	<path fill-rule="evenodd" clip-rule="evenodd" fill="#5CD4FE" d="M133.85,141.13c0-1.13,0.91-2.04,2.04-2.04h68.52
		c1.12,0,2.04,0.91,2.04,2.04v8.16c0,1.12-0.92,2.04-2.04,2.04h-68.52c-1.13,0-2.04-0.92-2.04-2.04V141.13z"/>
	<path fill="none" stroke="#2E75B6" stroke-miterlimit="10" d="M133.85,141.13c0-1.13,0.91-2.04,2.04-2.04h68.52
		c1.12,0,2.04,0.91,2.04,2.04v8.16c0,1.12-0.92,2.04-2.04,2.04h-68.52c-1.13,0-2.04-0.92-2.04-2.04V141.13z"/>
	<g>
		<defs>
			<rect id="SVGID_41_" x="134.4" y="139.68" width="71.4" height="11.04"/>
		</defs>
		<clipPath id="SVGID_42_">
			<use xlink:href="#SVGID_41_"  overflow="visible"/>
		</clipPath>
		<g clip-path="url(#SVGID_42_)">
			<text transform="matrix(1 0 0 1 163.3901 149.3496)"><tspan x="0" y="0" font-family="'Calibri'" font-size="12">D</tspan><tspan x="7.431" y="0" font-family="'Calibri'" font-size="12">1</tspan></text>
		</g>
	</g>
	<path fill-rule="evenodd" clip-rule="evenodd" fill="#5CD4FE" d="M133.85,153.37c0-1.13,0.91-2.04,2.04-2.04h68.52
		c1.12,0,2.04,0.91,2.04,2.04v8.16c0,1.12-0.92,2.04-2.04,2.04h-68.52c-1.13,0-2.04-0.92-2.04-2.04V153.37z"/>
	<path fill="none" stroke="#2E75B6" stroke-miterlimit="10" d="M133.85,153.37c0-1.13,0.91-2.04,2.04-2.04h68.52
		c1.12,0,2.04,0.91,2.04,2.04v8.16c0,1.12-0.92,2.04-2.04,2.04h-68.52c-1.13,0-2.04-0.92-2.04-2.04V153.37z"/>
	<g>
		<defs>
			<rect id="SVGID_43_" x="134.4" y="151.92" width="71.4" height="11.04"/>
		</defs>
		<clipPath id="SVGID_44_">
			<use xlink:href="#SVGID_43_"  overflow="visible"/>
		</clipPath>
		<g clip-path="url(#SVGID_44_)">
			<text transform="matrix(1 0 0 1 163.3901 161.5898)"><tspan x="0" y="0" font-family="'Calibri'" font-size="12">D</tspan><tspan x="7.431" y="0" font-family="'Calibri'" font-size="12">0</tspan></text>
		</g>
	</g>
	<path fill-rule="evenodd" clip-rule="evenodd" fill="#5CD4FE" d="M32.343,140.76c0-1.189,0.968-2.16,2.162-2.16H117.3
		c1.19,0,2.16,0.971,2.16,2.16v8.65c0,1.2-0.97,2.16-2.16,2.16H34.505c-1.194,0-2.162-0.96-2.162-2.16V140.76z"/>
	<path fill="none" stroke="#2E75B6" stroke-miterlimit="10" d="M32.343,140.76c0-1.189,0.968-2.16,2.162-2.16H117.3
		c1.19,0,2.16,0.971,2.16,2.16v8.65c0,1.2-0.97,2.16-2.16,2.16H34.505c-1.194,0-2.162-0.96-2.162-2.16V140.76z"/>
	<g>
		<defs>
			<rect id="SVGID_45_" x="33" y="139.2" width="85.8" height="11.76"/>
		</defs>
		<clipPath id="SVGID_46_">
			<use xlink:href="#SVGID_45_"  overflow="visible"/>
		</clipPath>
		<g clip-path="url(#SVGID_46_)">
			<text transform="matrix(1 0 0 1 40.2002 148.8701)"><tspan x="0" y="0" font-family="'Calibri'" font-size="11.04">P</tspan><tspan x="5.748" y="0" font-family="'Calibri'" font-size="11.04">0</tspan><tspan x="11.376" y="0" font-family="'Calibri'" font-size="11.04">.07</tspan></text>
		</g>
	</g>
	<path fill-rule="evenodd" clip-rule="evenodd" fill="#5CD4FE" d="M32.343,153.61c0-1.12,0.913-2.04,2.04-2.04h83.037
		c1.13,0,2.04,0.92,2.04,2.04v8.159c0,1.131-0.91,2.04-2.04,2.04H34.383c-1.127,0-2.04-0.909-2.04-2.04V153.61z"/>
	<path fill="none" stroke="#2E75B6" stroke-miterlimit="10" d="M32.343,153.61c0-1.12,0.913-2.04,2.04-2.04h83.037
		c1.13,0,2.04,0.92,2.04,2.04v8.159c0,1.131-0.91,2.04-2.04,2.04H34.383c-1.127,0-2.04-0.909-2.04-2.04V153.61z"/>
	<g>
		<defs>
			<rect id="SVGID_47_" x="32.88" y="152.16" width="86.04" height="11.04"/>
		</defs>
		<clipPath id="SVGID_48_">
			<use xlink:href="#SVGID_47_"  overflow="visible"/>
		</clipPath>
		<g clip-path="url(#SVGID_48_)">
			<text transform="matrix(1 0 0 1 40.1519 161.4697)"><tspan x="0" y="0" font-family="'Calibri'" font-size="11.064">P</tspan><tspan x="5.749" y="0" font-family="'Calibri'" font-size="11.064">1.08</tspan></text>
		</g>
	</g>
	<path fill-rule="evenodd" clip-rule="evenodd" fill="#5CD4FE" d="M410.13,91.84c0-1.11,0.9-2,2.01-2h68.58
		c1.11,0,2.011,0.89,2.011,2v8.03c0,1.11-0.9,2.01-2.011,2.01h-68.58c-1.11,0-2.01-0.9-2.01-2.01V91.84z"/>
	<path fill="none" stroke="#2E75B6" stroke-miterlimit="10" d="M410.13,91.84c0-1.11,0.9-2,2.01-2h68.58c1.11,0,2.011,0.89,2.011,2
		v8.03c0,1.11-0.9,2.01-2.011,2.01h-68.58c-1.11,0-2.01-0.9-2.01-2.01V91.84z"/>
	<g>
		<defs>
			<rect id="SVGID_49_" x="410.76" y="90.36" width="71.4" height="10.92"/>
		</defs>
		<clipPath id="SVGID_50_">
			<use xlink:href="#SVGID_49_"  overflow="visible"/>
		</clipPath>
		<g clip-path="url(#SVGID_50_)">
			<text transform="matrix(1 0 0 1 439.7002 99.98)"><tspan x="0" y="0" font-family="'Calibri'" font-size="12">D</tspan><tspan x="7.431" y="0" font-family="'Calibri'" font-size="12">3</tspan></text>
		</g>
	</g>
	<path fill-rule="evenodd" clip-rule="evenodd" fill="#5CD4FE" d="M410.13,103.92c0-1.13,0.91-2.04,2.04-2.04h68.521
		c1.13,0,2.04,0.91,2.04,2.04v8.16c0,1.13-0.91,2.04-2.04,2.04H412.17c-1.13,0-2.04-0.91-2.04-2.04V103.92z"/>
	<path fill="none" stroke="#2E75B6" stroke-miterlimit="10" d="M410.13,103.92c0-1.13,0.91-2.04,2.04-2.04h68.521
		c1.13,0,2.04,0.91,2.04,2.04v8.16c0,1.13-0.91,2.04-2.04,2.04H412.17c-1.13,0-2.04-0.91-2.04-2.04V103.92z"/>
	<g>
		<defs>
			<rect id="SVGID_51_" x="410.76" y="102.48" width="71.4" height="11.04"/>
		</defs>
		<clipPath id="SVGID_52_">
			<use xlink:href="#SVGID_51_"  overflow="visible"/>
		</clipPath>
		<g clip-path="url(#SVGID_52_)">
			<text transform="matrix(1 0 0 1 439.7305 112.1299)"><tspan x="0" y="0" font-family="'Calibri'" font-size="12">D</tspan><tspan x="7.431" y="0" font-family="'Calibri'" font-size="12">2</tspan></text>
		</g>
	</g>
	<path fill-rule="evenodd" clip-rule="evenodd" fill="#5CD4FE" d="M497.16,91.68c0-1.13,0.91-2.04,2.04-2.04h82.939
		c1.13,0,2.04,0.91,2.04,2.04v8.16c0,1.13-0.91,2.04-2.04,2.04H499.2c-1.13,0-2.04-0.91-2.04-2.04V91.68z"/>
	<path fill="none" stroke="#2E75B6" stroke-miterlimit="10" d="M497.16,91.68c0-1.13,0.91-2.04,2.04-2.04h82.939
		c1.13,0,2.04,0.91,2.04,2.04v8.16c0,1.13-0.91,2.04-2.04,2.04H499.2c-1.13,0-2.04-0.91-2.04-2.04V91.68z"/>
	<g>
		<defs>
			<rect id="SVGID_53_" x="497.76" y="90.24" width="85.8" height="11.04"/>
		</defs>
		<clipPath id="SVGID_54_">
			<use xlink:href="#SVGID_53_"  overflow="visible"/>
		</clipPath>
		<g clip-path="url(#SVGID_54_)">
			<text transform="matrix(1 0 0 1 505.0303 99.5298)"><tspan x="0" y="0" font-family="'Calibri'" font-size="11.04">P</tspan><tspan x="5.747" y="0" font-family="'Calibri'" font-size="11.04">0</tspan><tspan x="11.376" y="0" font-family="'Calibri'" font-size="11.04">.08</tspan></text>
		</g>
	</g>
	<path fill-rule="evenodd" clip-rule="evenodd" fill="#5CD4FE" d="M497.16,103.92c0-1.13,0.91-2.04,2.04-2.04h82.939
		c1.13,0,2.04,0.91,2.04,2.04v8.16c0,1.13-0.91,2.04-2.04,2.04H499.2c-1.13,0-2.04-0.91-2.04-2.04V103.92z"/>
	<path fill="none" stroke="#2E75B6" stroke-miterlimit="10" d="M497.16,103.92c0-1.13,0.91-2.04,2.04-2.04h82.939
		c1.13,0,2.04,0.91,2.04,2.04v8.16c0,1.13-0.91,2.04-2.04,2.04H499.2c-1.13,0-2.04-0.91-2.04-2.04V103.92z"/>
	<g>
		<defs>
			<rect id="SVGID_55_" x="497.76" y="102.48" width="85.8" height="11.04"/>
		</defs>
		<clipPath id="SVGID_56_">
			<use xlink:href="#SVGID_55_"  overflow="visible"/>
		</clipPath>
		<g clip-path="url(#SVGID_56_)">
			<text transform="matrix(1 0 0 1 505.0303 111.77)"><tspan x="0" y="0" font-family="'Calibri'" font-size="11.04">P</tspan><tspan x="5.747" y="0" font-family="'Calibri'" font-size="11.04">0</tspan><tspan x="11.376" y="0" font-family="'Calibri'" font-size="11.04">.06</tspan></text>
		</g>
	</g>
	<path fill-rule="evenodd" clip-rule="evenodd" fill="#92D050" d="M352.07,121.36c0-4,3.24-7.24,7.24-7.24h28.97
		c4,0,7.24,3.24,7.24,7.24v34.96c0,4-3.24,7.25-7.24,7.25h-28.97c-4,0-7.24-3.25-7.24-7.25V121.36z"/>
	<path fill="none" stroke="#00B050" stroke-miterlimit="10" d="M352.07,121.36c0-4,3.24-7.24,7.24-7.24h28.97
		c4,0,7.24,3.24,7.24,7.24v34.96c0,4-3.24,7.25-7.24,7.25h-28.97c-4,0-7.24-3.25-7.24-7.25V121.36z"/>
	<g>
		<defs>
			<rect id="SVGID_57_" x="18" y="-106.2" width="581.76" height="466.08"/>
		</defs>
		<clipPath id="SVGID_58_">
			<use xlink:href="#SVGID_57_"  overflow="visible"/>
		</clipPath>
		<g clip-path="url(#SVGID_58_)">
			<text transform="matrix(1 0 0 1 366.1201 142.9697)" font-family="'Calibri'" font-size="12">I2C</text>
		</g>
	</g>
	<path fill-rule="evenodd" clip-rule="evenodd" fill="#92D050" d="M410.04,140.64c0-1.13,0.91-2.04,2.04-2.04h68.52
		c1.131,0,2.04,0.91,2.04,2.04v8.16c0,1.13-0.909,2.04-2.04,2.04h-68.52c-1.13,0-2.04-0.91-2.04-2.04V140.64z"/>
	<path fill="none" stroke="#00B050" stroke-miterlimit="10" d="M410.04,140.64c0-1.13,0.91-2.04,2.04-2.04h68.52
		c1.131,0,2.04,0.91,2.04,2.04v8.16c0,1.13-0.909,2.04-2.04,2.04h-68.52c-1.13,0-2.04-0.91-2.04-2.04V140.64z"/>
	<g>
		<defs>
			<rect id="SVGID_59_" x="410.64" y="139.2" width="71.4" height="11.04"/>
		</defs>
		<clipPath id="SVGID_60_">
			<use xlink:href="#SVGID_59_"  overflow="visible"/>
		</clipPath>
		<g clip-path="url(#SVGID_60_)">
			<text transform="matrix(1 0 0 1 424.1504 148.8496)"><tspan x="0" y="0" font-family="'Calibri'" font-size="12">I2C2</tspan><tspan x="21.586" y="0" font-family="'Calibri'" font-size="12">_</tspan><tspan x="27.574" y="0" font-family="'Calibri'" font-size="12">SCL</tspan></text>
		</g>
	</g>
	<path fill-rule="evenodd" clip-rule="evenodd" fill="#92D050" d="M410.04,152.88c0-1.13,0.91-2.04,2.04-2.04h68.52
		c1.131,0,2.04,0.91,2.04,2.04v8.16c0,1.13-0.909,2.04-2.04,2.04h-68.52c-1.13,0-2.04-0.91-2.04-2.04V152.88z"/>
	<path fill="none" stroke="#00B050" stroke-miterlimit="10" d="M410.04,152.88c0-1.13,0.91-2.04,2.04-2.04h68.52
		c1.131,0,2.04,0.91,2.04,2.04v8.16c0,1.13-0.909,2.04-2.04,2.04h-68.52c-1.13,0-2.04-0.91-2.04-2.04V152.88z"/>
	<g>
		<defs>
			<rect id="SVGID_61_" x="410.64" y="151.44" width="71.4" height="11.04"/>
		</defs>
		<clipPath id="SVGID_62_">
			<use xlink:href="#SVGID_61_"  overflow="visible"/>
		</clipPath>
		<g clip-path="url(#SVGID_62_)">
			<text transform="matrix(1 0 0 1 422.5898 161.0898)"><tspan x="0" y="0" font-family="'Calibri'" font-size="12">I2C2</tspan><tspan x="21.586" y="0" font-family="'Calibri'" font-size="12">_</tspan><tspan x="27.574" y="0" font-family="'Calibri'" font-size="12">S</tspan><tspan x="33.088" y="0" font-family="'Calibri'" font-size="12">D</tspan><tspan x="40.519" y="0" font-family="'Calibri'" font-size="12">A</tspan></text>
		</g>
	</g>
	<path fill-rule="evenodd" clip-rule="evenodd" fill="#92D050" d="M497.16,140.64c0-1.13,0.91-2.04,2.04-2.04h82.939
		c1.13,0,2.04,0.91,2.04,2.04v8.16c0,1.13-0.91,2.04-2.04,2.04H499.2c-1.13,0-2.04-0.91-2.04-2.04V140.64z"/>
	<path fill="none" stroke="#00B050" stroke-miterlimit="10" d="M497.16,140.64c0-1.13,0.91-2.04,2.04-2.04h82.939
		c1.13,0,2.04,0.91,2.04,2.04v8.16c0,1.13-0.91,2.04-2.04,2.04H499.2c-1.13,0-2.04-0.91-2.04-2.04V140.64z"/>
	<g>
		<defs>
			<rect id="SVGID_63_" x="497.76" y="139.2" width="85.8" height="11.04"/>
		</defs>
		<clipPath id="SVGID_64_">
			<use xlink:href="#SVGID_63_"  overflow="visible"/>
		</clipPath>
		<g clip-path="url(#SVGID_64_)">
			<text transform="matrix(1 0 0 1 505.0303 148.5098)"><tspan x="0" y="0" font-family="'Calibri'" font-size="11.04">P</tspan><tspan x="5.747" y="0" font-family="'Calibri'" font-size="11.04">0</tspan><tspan x="11.376" y="0" font-family="'Calibri'" font-size="11.04">.11</tspan></text>
		</g>
	</g>
	<path fill-rule="evenodd" clip-rule="evenodd" fill="#92D050" d="M497.16,152.88c0-1.13,0.91-2.04,2.04-2.04h82.939
		c1.13,0,2.04,0.91,2.04,2.04v8.16c0,1.13-0.91,2.04-2.04,2.04H499.2c-1.13,0-2.04-0.91-2.04-2.04V152.88z"/>
	<path fill="none" stroke="#00B050" stroke-miterlimit="10" d="M497.16,152.88c0-1.13,0.91-2.04,2.04-2.04h82.939
		c1.13,0,2.04,0.91,2.04,2.04v8.16c0,1.13-0.91,2.04-2.04,2.04H499.2c-1.13,0-2.04-0.91-2.04-2.04V152.88z"/>
	<g>
		<defs>
			<rect id="SVGID_65_" x="497.76" y="151.44" width="85.8" height="11.04"/>
		</defs>
		<clipPath id="SVGID_66_">
			<use xlink:href="#SVGID_65_"  overflow="visible"/>
		</clipPath>
		<g clip-path="url(#SVGID_66_)">
			<text transform="matrix(1 0 0 1 505.0303 160.75)"><tspan x="0" y="0" font-family="'Calibri'" font-size="11.04">P</tspan><tspan x="5.747" y="0" font-family="'Calibri'" font-size="11.04">1</tspan><tspan x="11.376" y="0" font-family="'Calibri'" font-size="11.04">.09</tspan></text>
		</g>
	</g>
	<path fill-rule="evenodd" clip-rule="evenodd" fill="#FF3300" d="M497.16,30.48c0-1.13,0.91-2.04,2.04-2.04h82.939
		c1.13,0,2.04,0.91,2.04,2.04v8.16c0,1.13-0.91,2.04-2.04,2.04H499.2c-1.13,0-2.04-0.91-2.04-2.04V30.48z"/>
	<path fill="none" stroke="#A80000" stroke-miterlimit="10" d="M497.16,30.48c0-1.13,0.91-2.04,2.04-2.04h82.939
		c1.13,0,2.04,0.91,2.04,2.04v8.16c0,1.13-0.91,2.04-2.04,2.04H499.2c-1.13,0-2.04-0.91-2.04-2.04V30.48z"/>
	<g>
		<defs>
			<rect id="SVGID_67_" x="497.76" y="29.04" width="85.8" height="11.04"/>
		</defs>
		<clipPath id="SVGID_68_">
			<use xlink:href="#SVGID_67_"  overflow="visible"/>
		</clipPath>
		<g clip-path="url(#SVGID_68_)">
			<text transform="matrix(1 0 0 1 505.0303 38.6602)"><tspan x="0" y="0" fill="#FFFFFF" font-family="'Calibri'" font-size="12">V</tspan><tspan x="6.82" y="0" fill="#FFFFFF" font-family="'Calibri'" font-size="12">CC</tspan><tspan x="19.546" y="0" fill="#FFFFFF" font-family="'Calibri'" font-size="12">_</tspan><tspan x="25.522" y="0" fill="#FFFFFF" font-family="'Calibri'" font-size="12">3</tspan><tspan x="31.652" y="0" fill="#FFFFFF" font-family="'Calibri'" font-size="12">V</tspan><tspan x="38.473" y="0" fill="#FFFFFF" font-family="'Calibri'" font-size="12">3</tspan></text>
		</g>
	</g>
	<path d="M293.16,18.92c1.86,0,3.37,1.51,3.37,3.37c0,1.87-1.51,3.38-3.37,3.38c-1.86,0-3.38-1.51-3.38-3.38
		C289.78,20.43,291.3,18.92,293.16,18.92z M264.12,21.17h29.04v2.25h-29.04V21.17z"/>
	<path d="M293.16,32.16c1.86,0,3.37,1.51,3.37,3.38c0,1.86-1.51,3.37-3.37,3.37c-1.86,0-3.38-1.51-3.38-3.37
		C289.78,33.67,291.3,32.16,293.16,32.16z M264.12,34.41h29.04v2.25h-29.04V34.41z"/>
	<path d="M293.16,44.51c1.86,0,3.37,1.51,3.37,3.37c0,1.87-1.51,3.38-3.37,3.38c-1.86,0-3.38-1.51-3.38-3.38
		C289.78,46.02,291.3,44.51,293.16,44.51z M264.12,46.76h29.04v2.25h-29.04V46.76z"/>
	<path d="M293.16,55.64c1.86,0,3.37,1.51,3.37,3.37c0,1.87-1.51,3.38-3.37,3.38c-1.86,0-3.38-1.51-3.38-3.38
		C289.78,57.15,291.3,55.64,293.16,55.64z M264.12,57.89h29.04v2.25h-29.04V57.89z"/>
	<path d="M293.16,67.88c1.86,0,3.37,1.51,3.37,3.37c0,1.87-1.51,3.38-3.37,3.38c-1.86,0-3.38-1.51-3.38-3.38
		C289.78,69.39,291.3,67.88,293.16,67.88z M264.12,70.13h29.04v2.25h-29.04V70.13z"/>
	<path d="M293.16,80.22c1.86,0,3.37,1.51,3.37,3.38c0,1.86-1.51,3.37-3.37,3.37c-1.86,0-3.38-1.51-3.38-3.37
		C289.78,81.73,291.3,80.22,293.16,80.22z M264.12,82.47h29.04v2.25h-29.04V82.47z"/>
	<path d="M293.16,92.36c1.86,0,3.37,1.51,3.37,3.37c0,1.87-1.51,3.38-3.37,3.38c-1.86,0-3.38-1.51-3.38-3.38
		C289.78,93.87,291.3,92.36,293.16,92.36z M264.12,94.61h29.04v2.25h-29.04V94.61z"/>
	<path d="M293.16,104.6c1.86,0,3.37,1.51,3.37,3.37c0,1.87-1.51,3.38-3.37,3.38c-1.86,0-3.38-1.51-3.38-3.38
		C289.78,106.11,291.3,104.6,293.16,104.6z M264.12,106.85h29.04v2.25h-29.04V106.85z"/>
	<path d="M293.26,116.84c1.87,0,3.38,1.51,3.38,3.37c0,1.87-1.51,3.38-3.38,3.38c-1.86,0-3.37-1.51-3.37-3.38
		C289.89,118.35,291.4,116.84,293.26,116.84z M264.22,119.09h29.04v2.25h-29.04V119.09z"/>
	<path d="M293.16,129.08c1.86,0,3.37,1.51,3.37,3.37c0,1.87-1.51,3.38-3.37,3.38c-1.86,0-3.38-1.51-3.38-3.38
		C289.78,130.59,291.3,129.08,293.16,129.08z M264.12,131.33h29.04v2.25h-29.04V131.33z"/>
	<path d="M293.16,141.32c1.86,0,3.37,1.51,3.37,3.37c0,1.869-1.51,3.38-3.37,3.38c-1.86,0-3.38-1.511-3.38-3.38
		C289.78,142.83,291.3,141.32,293.16,141.32z M264.12,143.57h29.04v2.25h-29.04V143.57z"/>
	<path d="M293.16,153.56c1.86,0,3.37,1.511,3.37,3.37c0,1.87-1.51,3.38-3.37,3.38c-1.86,0-3.38-1.51-3.38-3.38
		C289.78,155.07,291.3,153.56,293.16,153.56z M264.12,155.81h29.04v2.25h-29.04V155.81z"/>
	<path d="M322.2,19.12c-1.86,0-3.37,1.51-3.37,3.37c0,1.87,1.51,3.38,3.37,3.38c1.86,0,3.38-1.51,3.38-3.38
		C325.58,20.63,324.06,19.12,322.2,19.12z M351.24,21.37H322.2v2.25h29.04V21.37z"/>
	<path d="M322.2,31.36c-1.86,0-3.37,1.51-3.37,3.37c0,1.87,1.51,3.38,3.37,3.38c1.86,0,3.38-1.51,3.38-3.38
		C325.58,32.87,324.06,31.36,322.2,31.36z M351.24,33.61H322.2v2.25h29.04V33.61z"/>
	<path d="M322.2,42.36c-1.86,0-3.37,1.51-3.37,3.37c0,1.87,1.51,3.38,3.37,3.38c1.86,0,3.38-1.51,3.38-3.38
		C325.58,43.87,324.06,42.36,322.2,42.36z M351.24,44.61H322.2v2.25h29.04V44.61z"/>
	<path d="M322.2,56.15c-1.86,0-3.37,1.52-3.37,3.38c0,1.86,1.51,3.37,3.37,3.37c1.86,0,3.38-1.51,3.38-3.37
		C325.58,57.67,324.06,56.15,322.2,56.15z M351.24,58.4H322.2v2.25h29.04V58.4z"/>
	<path d="M322.2,68.08c-1.86,0-3.37,1.51-3.37,3.37c0,1.87,1.51,3.38,3.37,3.38c1.86,0,3.38-1.51,3.38-3.38
		C325.58,69.59,324.06,68.08,322.2,68.08z M351.24,70.33H322.2v2.25h29.04V70.33z"/>
	<path d="M322.2,79.66c-1.86,0-3.37,1.51-3.37,3.37c0,1.86,1.51,3.38,3.37,3.38c1.86,0,3.38-1.52,3.38-3.38
		C325.58,81.17,324.06,79.66,322.2,79.66z M351.24,81.91H322.2v2.25h29.04V81.91z"/>
	<path d="M322.2,92.56c-1.86,0-3.37,1.51-3.37,3.37c0,1.87,1.51,3.38,3.37,3.38c1.86,0,3.38-1.51,3.38-3.38
		C325.58,94.07,324.06,92.56,322.2,92.56z M351.24,94.81H322.2v2.25h29.04V94.81z"/>
	<path d="M322.2,104.68c-1.86,0-3.37,1.51-3.37,3.38c0,1.86,1.51,3.37,3.37,3.37c1.86,0,3.38-1.51,3.38-3.37
		C325.58,106.19,324.06,104.68,322.2,104.68z M351.24,106.93H322.2v2.25h29.04V106.93z"/>
	<path d="M322.2,117.04c-1.86,0-3.37,1.51-3.37,3.37c0,1.87,1.51,3.38,3.37,3.38c1.86,0,3.38-1.51,3.38-3.38
		C325.58,118.55,324.06,117.04,322.2,117.04z M351.24,119.29H322.2v2.25h29.04V119.29z"/>
	<path d="M322.2,129.28c-1.86,0-3.37,1.51-3.37,3.37c0,1.87,1.51,3.38,3.37,3.38c1.86,0,3.38-1.51,3.38-3.38
		C325.58,130.79,324.06,129.28,322.2,129.28z M351.24,131.53H322.2v2.25h29.04V131.53z"/>
	<path d="M322.2,141.52c-1.86,0-3.37,1.511-3.37,3.37c0,1.87,1.51,3.38,3.37,3.38c1.86,0,3.38-1.51,3.38-3.38
		C325.58,143.03,324.06,141.52,322.2,141.52z M351.24,143.77H322.2v2.25h29.04V143.77z"/>
	<path d="M322.2,153.76c-1.86,0-3.37,1.51-3.37,3.37c0,1.87,1.51,3.38,3.37,3.38c1.86,0,3.38-1.51,3.38-3.38
		C325.58,155.27,324.06,153.76,322.2,153.76z M351.24,156.01H322.2v2.25h29.04V156.01z"/>
	<path fill-rule="evenodd" clip-rule="evenodd" fill="#404040" d="M32.52,18.24c0-1.13,0.913-2.04,2.04-2.04h82.87
		c1.12,0,2.04,0.91,2.04,2.04v8.16c0,1.13-0.92,2.04-2.04,2.04H34.56c-1.127,0-2.04-0.91-2.04-2.04V18.24z"/>
	<path fill="none" stroke="#000000" stroke-miterlimit="10" d="M32.52,18.24c0-1.13,0.913-2.04,2.04-2.04h82.87
		c1.12,0,2.04,0.91,2.04,2.04v8.16c0,1.13-0.92,2.04-2.04,2.04H34.56c-1.127,0-2.04-0.91-2.04-2.04V18.24z"/>
	<g>
		<defs>
			<rect id="SVGID_69_" x="33.12" y="16.8" width="85.8" height="11.04"/>
		</defs>
		<clipPath id="SVGID_70_">
			<use xlink:href="#SVGID_69_"  overflow="visible"/>
		</clipPath>
		<g clip-path="url(#SVGID_70_)">
			<text transform="matrix(1 0 0 1 40.3442 26.4199)"><tspan x="0" y="0" fill="#FFFFFF" font-family="'Calibri'" font-size="12">G</tspan><tspan x="7.57" y="0" fill="#FFFFFF" font-family="'Calibri'" font-size="12">N</tspan><tspan x="15.34" y="0" fill="#FFFFFF" font-family="'Calibri'" font-size="12">D</tspan></text>
		</g>
	</g>
	<path fill-rule="evenodd" clip-rule="evenodd" fill="#404040" d="M497.16,18.24c0-1.13,0.91-2.04,2.04-2.04h83.04
		c1.13,0,2.04,0.91,2.04,2.04v8.16c0,1.13-0.91,2.04-2.04,2.04H499.2c-1.13,0-2.04-0.91-2.04-2.04V18.24z"/>
	<path fill="none" stroke="#000000" stroke-miterlimit="10" d="M497.16,18.24c0-1.13,0.91-2.04,2.04-2.04h83.04
		c1.13,0,2.04,0.91,2.04,2.04v8.16c0,1.13-0.91,2.04-2.04,2.04H499.2c-1.13,0-2.04-0.91-2.04-2.04V18.24z"/>
	<g>
		<defs>
			<rect id="SVGID_71_" x="497.76" y="16.8" width="85.92" height="11.04"/>
		</defs>
		<clipPath id="SVGID_72_">
			<use xlink:href="#SVGID_71_"  overflow="visible"/>
		</clipPath>
		<g clip-path="url(#SVGID_72_)">
			<text transform="matrix(1 0 0 1 505.0303 26.4199)"><tspan x="0" y="0" fill="#FFFFFF" font-family="'Calibri'" font-size="12">G</tspan><tspan x="7.57" y="0" fill="#FFFFFF" font-family="'Calibri'" font-size="12">N</tspan><tspan x="15.341" y="0" fill="#FFFFFF" font-family="'Calibri'" font-size="12">D</tspan></text>
		</g>
	</g>
	<path fill-rule="evenodd" clip-rule="evenodd" fill="#404040" d="M496.99,67.24c0-1.15,0.93-2.08,2.069-2.08h82.971
		c1.149,0,2.08,0.93,2.08,2.08v8.3c0,1.14-0.931,2.07-2.08,2.07H499.06c-1.14,0-2.069-0.93-2.069-2.07V67.24z"/>
	<path fill="none" stroke="#000000" stroke-miterlimit="10" d="M496.99,67.24c0-1.15,0.93-2.08,2.069-2.08h82.971
		c1.149,0,2.08,0.93,2.08,2.08v8.3c0,1.14-0.931,2.07-2.08,2.07H499.06c-1.14,0-2.069-0.93-2.069-2.07V67.24z"/>
	<g>
		<defs>
			<rect id="SVGID_73_" x="497.64" y="65.76" width="85.801" height="11.28"/>
		</defs>
		<clipPath id="SVGID_74_">
			<use xlink:href="#SVGID_73_"  overflow="visible"/>
		</clipPath>
		<g clip-path="url(#SVGID_74_)">
			<text transform="matrix(1 0 0 1 504.8604 75.5)"><tspan x="0" y="0" fill="#FFFFFF" font-family="'Calibri'" font-size="12">G</tspan><tspan x="7.57" y="0" fill="#FFFFFF" font-family="'Calibri'" font-size="12">N</tspan><tspan x="15.341" y="0" fill="#FFFFFF" font-family="'Calibri'" font-size="12">D</tspan></text>
		</g>
	</g>
	<path fill-rule="evenodd" clip-rule="evenodd" fill="#FF3300" d="M32.52,30.48c0-1.13,0.913-2.04,2.04-2.04h82.87
		c1.12,0,2.04,0.91,2.04,2.04v8.16c0,1.13-0.92,2.04-2.04,2.04H34.56c-1.127,0-2.04-0.91-2.04-2.04V30.48z"/>
	<path fill="none" stroke="#A80000" stroke-miterlimit="10" d="M32.52,30.48c0-1.13,0.913-2.04,2.04-2.04h82.87
		c1.12,0,2.04,0.91,2.04,2.04v8.16c0,1.13-0.92,2.04-2.04,2.04H34.56c-1.127,0-2.04-0.91-2.04-2.04V30.48z"/>
	<g>
		<defs>
			<rect id="SVGID_75_" x="33.12" y="29.04" width="85.8" height="11.04"/>
		</defs>
		<clipPath id="SVGID_76_">
			<use xlink:href="#SVGID_75_"  overflow="visible"/>
		</clipPath>
		<g clip-path="url(#SVGID_76_)">
			<text transform="matrix(1 0 0 1 40.3442 38.6602)"><tspan x="0" y="0" fill="#FFFFFF" font-family="'Calibri'" font-size="12">V</tspan><tspan x="6.821" y="0" fill="#FFFFFF" font-family="'Calibri'" font-size="12">CC</tspan><tspan x="19.545" y="0" fill="#FFFFFF" font-family="'Calibri'" font-size="12">_</tspan><tspan x="25.522" y="0" fill="#FFFFFF" font-family="'Calibri'" font-size="12">3</tspan><tspan x="31.652" y="0" fill="#FFFFFF" font-family="'Calibri'" font-size="12">V</tspan><tspan x="38.473" y="0" fill="#FFFFFF" font-family="'Calibri'" font-size="12">3</tspan><tspan x="44.555" y="0" fill="#FFFFFF" font-family="'Calibri'" font-size="12">_</tspan><tspan x="50.567" y="0" fill="#FFFFFF" font-family="'Calibri'" font-size="12">Ext</tspan></text>
		</g>
	</g>
	<path fill-rule="evenodd" clip-rule="evenodd" fill="#FF3300" d="M497.16,79.62c0-1.11,0.899-2.01,2-2.01h83.12c1.1,0,2,0.9,2,2.01
		v8.02c0,1.1-0.9,2-2,2h-83.12c-1.101,0-2-0.9-2-2V79.62z"/>
	<path fill="none" stroke="#A80000" stroke-miterlimit="10" d="M497.16,79.62c0-1.11,0.899-2.01,2-2.01h83.12c1.1,0,2,0.9,2,2.01
		v8.02c0,1.1-0.9,2-2,2h-83.12c-1.101,0-2-0.9-2-2V79.62z"/>
	<g>
		<defs>
			<rect id="SVGID_77_" x="497.76" y="78.24" width="85.92" height="10.8"/>
		</defs>
		<clipPath id="SVGID_78_">
			<use xlink:href="#SVGID_77_"  overflow="visible"/>
		</clipPath>
		<g clip-path="url(#SVGID_78_)">
			<text transform="matrix(1 0 0 1 505.0303 87.7402)"><tspan x="0" y="0" fill="#FFFFFF" font-family="'Calibri'" font-size="12">V</tspan><tspan x="6.82" y="0" fill="#FFFFFF" font-family="'Calibri'" font-size="12">CC</tspan><tspan x="19.546" y="0" fill="#FFFFFF" font-family="'Calibri'" font-size="12">_</tspan><tspan x="25.522" y="0" fill="#FFFFFF" font-family="'Calibri'" font-size="12">3</tspan><tspan x="31.652" y="0" fill="#FFFFFF" font-family="'Calibri'" font-size="12">V</tspan><tspan x="38.473" y="0" fill="#FFFFFF" font-family="'Calibri'" font-size="12">3</tspan><tspan x="44.555" y="0" fill="#FFFFFF" font-family="'Calibri'" font-size="12">_</tspan><tspan x="50.567" y="0" fill="#FFFFFF" font-family="'Calibri'" font-size="12">Ext</tspan></text>
		</g>
	</g>
	<path fill-rule="evenodd" clip-rule="evenodd" fill="#404040" d="M32.52,67.41c0-1.12,0.913-2.04,2.04-2.04h82.87
		c1.12,0,2.04,0.92,2.04,2.04v8.16c0,1.13-0.92,2.04-2.04,2.04H34.56c-1.127,0-2.04-0.91-2.04-2.04V67.41z"/>
	<path fill="none" stroke="#000000" stroke-miterlimit="10" d="M32.52,67.41c0-1.12,0.913-2.04,2.04-2.04h82.87
		c1.12,0,2.04,0.92,2.04,2.04v8.16c0,1.13-0.92,2.04-2.04,2.04H34.56c-1.127,0-2.04-0.91-2.04-2.04V67.41z"/>
	<g>
		<defs>
			<rect id="SVGID_79_" x="33.12" y="66" width="85.8" height="11.04"/>
		</defs>
		<clipPath id="SVGID_80_">
			<use xlink:href="#SVGID_79_"  overflow="visible"/>
		</clipPath>
		<g clip-path="url(#SVGID_80_)">
			<text transform="matrix(1 0 0 1 40.3442 75.6201)"><tspan x="0" y="0" fill="#FFFFFF" font-family="'Calibri'" font-size="12">G</tspan><tspan x="7.57" y="0" fill="#FFFFFF" font-family="'Calibri'" font-size="12">N</tspan><tspan x="15.34" y="0" fill="#FFFFFF" font-family="'Calibri'" font-size="12">D</tspan></text>
		</g>
	</g>
	<path fill-rule="evenodd" clip-rule="evenodd" fill="#FF3300" d="M32.52,79.65c0-1.12,0.913-2.04,2.04-2.04h82.87
		c1.12,0,2.04,0.92,2.04,2.04v8.16c0,1.13-0.92,2.04-2.04,2.04H34.56c-1.127,0-2.04-0.91-2.04-2.04V79.65z"/>
	<path fill="none" stroke="#A80000" stroke-miterlimit="10" d="M32.52,79.65c0-1.12,0.913-2.04,2.04-2.04h82.87
		c1.12,0,2.04,0.92,2.04,2.04v8.16c0,1.13-0.92,2.04-2.04,2.04H34.56c-1.127,0-2.04-0.91-2.04-2.04V79.65z"/>
	<g>
		<defs>
			<rect id="SVGID_81_" x="33.12" y="78.24" width="85.8" height="11.04"/>
		</defs>
		<clipPath id="SVGID_82_">
			<use xlink:href="#SVGID_81_"  overflow="visible"/>
		</clipPath>
		<g clip-path="url(#SVGID_82_)">
			<text transform="matrix(1 0 0 1 40.3442 87.8599)"><tspan x="0" y="0" fill="#FFFFFF" font-family="'Calibri'" font-size="12">V</tspan><tspan x="6.821" y="0" fill="#FFFFFF" font-family="'Calibri'" font-size="12">CC</tspan><tspan x="19.545" y="0" fill="#FFFFFF" font-family="'Calibri'" font-size="12">_</tspan><tspan x="25.522" y="0" fill="#FFFFFF" font-family="'Calibri'" font-size="12">3</tspan><tspan x="31.652" y="0" fill="#FFFFFF" font-family="'Calibri'" font-size="12">V</tspan><tspan x="38.473" y="0" fill="#FFFFFF" font-family="'Calibri'" font-size="12">3</tspan><tspan x="44.555" y="0" fill="#FFFFFF" font-family="'Calibri'" font-size="12">_</tspan><tspan x="50.567" y="0" fill="#FFFFFF" font-family="'Calibri'" font-size="12">Ext</tspan></text>
		</g>
	</g>
	<path fill-rule="evenodd" clip-rule="evenodd" fill="#404040" d="M32.8,116.16c0-1.13,0.914-2.04,2.04-2.04h82.76
		c1.13,0,2.04,0.91,2.04,2.04v8.16c0,1.13-0.91,2.04-2.04,2.04H34.84c-1.126,0-2.04-0.91-2.04-2.04V116.16z"/>
	<path fill="none" stroke="#000000" stroke-miterlimit="10" d="M32.8,116.16c0-1.13,0.914-2.04,2.04-2.04h82.76
		c1.13,0,2.04,0.91,2.04,2.04v8.16c0,1.13-0.91,2.04-2.04,2.04H34.84c-1.126,0-2.04-0.91-2.04-2.04V116.16z"/>
	<g>
		<defs>
			<rect id="SVGID_83_" x="33.36" y="114.72" width="85.68" height="11.04"/>
		</defs>
		<clipPath id="SVGID_84_">
			<use xlink:href="#SVGID_83_"  overflow="visible"/>
		</clipPath>
		<g clip-path="url(#SVGID_84_)">
			<text transform="matrix(1 0 0 1 40.6079 124.3701)"><tspan x="0" y="0" fill="#FFFFFF" font-family="'Calibri'" font-size="12">G</tspan><tspan x="7.57" y="0" fill="#FFFFFF" font-family="'Calibri'" font-size="12">N</tspan><tspan x="15.34" y="0" fill="#FFFFFF" font-family="'Calibri'" font-size="12">D</tspan></text>
		</g>
	</g>
	<path fill-rule="evenodd" clip-rule="evenodd" fill="#FF3300" d="M32.8,128.4c0-1.13,0.914-2.04,2.04-2.04h82.76
		c1.13,0,2.04,0.91,2.04,2.04v8.16c0,1.13-0.91,2.04-2.04,2.04H34.84c-1.126,0-2.04-0.91-2.04-2.04V128.4z"/>
	<path fill="none" stroke="#A80000" stroke-miterlimit="10" d="M32.8,128.4c0-1.13,0.914-2.04,2.04-2.04h82.76
		c1.13,0,2.04,0.91,2.04,2.04v8.16c0,1.13-0.91,2.04-2.04,2.04H34.84c-1.126,0-2.04-0.91-2.04-2.04V128.4z"/>
	<g>
		<defs>
			<rect id="SVGID_85_" x="33.36" y="126.96" width="85.68" height="11.04"/>
		</defs>
		<clipPath id="SVGID_86_">
			<use xlink:href="#SVGID_85_"  overflow="visible"/>
		</clipPath>
		<g clip-path="url(#SVGID_86_)">
			<text transform="matrix(1 0 0 1 40.6079 136.6099)"><tspan x="0" y="0" fill="#FFFFFF" font-family="'Calibri'" font-size="12">V</tspan><tspan x="6.821" y="0" fill="#FFFFFF" font-family="'Calibri'" font-size="12">CC</tspan><tspan x="19.545" y="0" fill="#FFFFFF" font-family="'Calibri'" font-size="12">_</tspan><tspan x="25.522" y="0" fill="#FFFFFF" font-family="'Calibri'" font-size="12">3</tspan><tspan x="31.652" y="0" fill="#FFFFFF" font-family="'Calibri'" font-size="12">V</tspan><tspan x="38.473" y="0" fill="#FFFFFF" font-family="'Calibri'" font-size="12">3</tspan><tspan x="44.555" y="0" fill="#FFFFFF" font-family="'Calibri'" font-size="12">_</tspan><tspan x="50.567" y="0" fill="#FFFFFF" font-family="'Calibri'" font-size="12">Ext</tspan></text>
		</g>
	</g>
	<path fill-rule="evenodd" clip-rule="evenodd" fill="#FF3300" d="M497.16,128.4c0-1.13,0.91-2.04,2.04-2.04h83.04
		c1.13,0,2.04,0.91,2.04,2.04v8.16c0,1.13-0.91,2.04-2.04,2.04H499.2c-1.13,0-2.04-0.91-2.04-2.04V128.4z"/>
	<path fill="none" stroke="#A80000" stroke-miterlimit="10" d="M497.16,128.4c0-1.13,0.91-2.04,2.04-2.04h83.04
		c1.13,0,2.04,0.91,2.04,2.04v8.16c0,1.13-0.91,2.04-2.04,2.04H499.2c-1.13,0-2.04-0.91-2.04-2.04V128.4z"/>
	<g>
		<defs>
			<rect id="SVGID_87_" x="497.76" y="126.96" width="85.92" height="11.04"/>
		</defs>
		<clipPath id="SVGID_88_">
			<use xlink:href="#SVGID_87_"  overflow="visible"/>
		</clipPath>
		<g clip-path="url(#SVGID_88_)">
			<text transform="matrix(1 0 0 1 505.0303 136.6099)"><tspan x="0" y="0" fill="#FFFFFF" font-family="'Calibri'" font-size="12">V</tspan><tspan x="6.82" y="0" fill="#FFFFFF" font-family="'Calibri'" font-size="12">CC</tspan><tspan x="19.546" y="0" fill="#FFFFFF" font-family="'Calibri'" font-size="12">_</tspan><tspan x="25.522" y="0" fill="#FFFFFF" font-family="'Calibri'" font-size="12">3</tspan><tspan x="31.652" y="0" fill="#FFFFFF" font-family="'Calibri'" font-size="12">V</tspan><tspan x="38.473" y="0" fill="#FFFFFF" font-family="'Calibri'" font-size="12">3</tspan><tspan x="44.555" y="0" fill="#FFFFFF" font-family="'Calibri'" font-size="12">_</tspan><tspan x="50.567" y="0" fill="#FFFFFF" font-family="'Calibri'" font-size="12">Ext</tspan></text>
		</g>
	</g>
	<path fill-rule="evenodd" clip-rule="evenodd" fill="#404040" d="M497.16,116.16c0-1.13,0.91-2.04,2.04-2.04h83.04
		c1.13,0,2.04,0.91,2.04,2.04v8.16c0,1.13-0.91,2.04-2.04,2.04H499.2c-1.13,0-2.04-0.91-2.04-2.04V116.16z"/>
	<path fill="none" stroke="#000000" stroke-miterlimit="10" d="M497.16,116.16c0-1.13,0.91-2.04,2.04-2.04h83.04
		c1.13,0,2.04,0.91,2.04,2.04v8.16c0,1.13-0.91,2.04-2.04,2.04H499.2c-1.13,0-2.04-0.91-2.04-2.04V116.16z"/>
	<g>
		<defs>
			<rect id="SVGID_89_" x="497.76" y="114.72" width="85.92" height="11.04"/>
		</defs>
		<clipPath id="SVGID_90_">
			<use xlink:href="#SVGID_89_"  overflow="visible"/>
		</clipPath>
		<g clip-path="url(#SVGID_90_)">
			<text transform="matrix(1 0 0 1 505.0303 124.3701)"><tspan x="0" y="0" fill="#FFFFFF" font-family="'Calibri'" font-size="12">G</tspan><tspan x="7.57" y="0" fill="#FFFFFF" font-family="'Calibri'" font-size="12">N</tspan><tspan x="15.341" y="0" fill="#FFFFFF" font-family="'Calibri'" font-size="12">D</tspan></text>
		</g>
	</g>
</g>
<g>
	<g>
		<defs>
			<rect id="SVGID_91_" x="599.76" y="-289.207" width="581.76" height="466.08"/>
		</defs>
		<clipPath id="SVGID_92_">
			<use xlink:href="#SVGID_91_"  overflow="visible"/>
		</clipPath>
		<g clip-path="url(#SVGID_92_)">
			<defs>
				<rect id="SVGID_93_" x="877.18" y="17.893" width="25.251" height="146.54"/>
			</defs>
			<clipPath id="SVGID_94_">
				<use xlink:href="#SVGID_93_"  overflow="visible"/>
			</clipPath>
			<g transform="matrix(1 0 0 1 -4.633592e-006 6.085718e-007)" clip-path="url(#SVGID_94_)">
				
					<image overflow="visible" width="64" height="381" xlink:href="4C554F36.jpg"  transform="matrix(0.3945 0 0 0.3846 877.1797 17.8926)">
				</image>
			</g>
		</g>
	</g>
	
		<line fill="none" stroke="#000000" stroke-width="2.25" stroke-miterlimit="10" x1="978.25" y1="71.974" x2="1094.41" y2="71.974"/>
	
		<line fill="none" stroke="#000000" stroke-width="2.25" stroke-miterlimit="10" x1="977.81" y1="83.773" x2="1093.97" y2="83.773"/>
	
		<line fill="none" stroke="#000000" stroke-width="2.25" stroke-miterlimit="10" x1="978.289" y1="46.443" x2="1094.45" y2="46.443"/>
	
		<line fill="none" stroke="#000000" stroke-width="2.25" stroke-miterlimit="10" x1="978.359" y1="58.073" x2="1094.52" y2="58.073"/>
	
		<line fill="none" stroke="#000000" stroke-width="2.25" stroke-miterlimit="10" x1="701.97" y1="133.383" x2="818.13" y2="133.383"/>
	
		<line fill="none" stroke="#000000" stroke-width="2.25" stroke-miterlimit="10" x1="701.74" y1="120.873" x2="817.9" y2="120.873"/>
	
		<line fill="none" stroke="#000000" stroke-width="2.25" stroke-miterlimit="10" x1="701.4" y1="145.703" x2="817.56" y2="145.703"/>
	
		<line fill="none" stroke="#000000" stroke-width="2.25" stroke-miterlimit="10" x1="701.47" y1="157.357" x2="817.63" y2="157.357"/>
	<path fill-rule="evenodd" clip-rule="evenodd" fill="#5CD4FE" d="M802.82,121.573c0-4,3.25-7.25,7.26-7.25h29.029
		c4.01,0,7.26,3.25,7.26,7.25v34.842c0,4.008-3.25,7.258-7.26,7.258H810.08c-4.01,0-7.26-3.25-7.26-7.258V121.573z"/>
	<path fill="none" stroke="#2E75B6" stroke-miterlimit="10" d="M802.82,121.573c0-4,3.25-7.25,7.26-7.25h29.029
		c4.01,0,7.26,3.25,7.26,7.25v34.842c0,4.008-3.25,7.258-7.26,7.258H810.08c-4.01,0-7.26-3.25-7.26-7.258V121.573z"/>
	<g>
		<defs>
			<rect id="SVGID_95_" x="599.76" y="-289.207" width="581.76" height="466.08"/>
		</defs>
		<clipPath id="SVGID_96_">
			<use xlink:href="#SVGID_95_"  overflow="visible"/>
		</clipPath>
		<g clip-path="url(#SVGID_96_)">
			<text transform="matrix(1 0 0 1 812.2998 143.1729)"><tspan x="0" y="0" font-family="'Calibri'" font-size="12">D</tspan><tspan x="7.419" y="0" font-family="'Calibri'" font-size="12">I</tspan><tspan x="10.442" y="0" font-family="'Calibri'" font-size="12">O</tspan><tspan x="18.339" y="0" font-family="'Calibri'" font-size="12">3</tspan></text>
		</g>
	</g>
	<path fill-rule="evenodd" clip-rule="evenodd" fill="#5CD4FE" d="M715.689,141.153c0-1.13,0.91-2.04,2.041-2.04h68.52
		c1.119,0,2.039,0.91,2.039,2.04v8.16c0,1.13-0.92,2.04-2.039,2.04h-68.52c-1.131,0-2.041-0.91-2.041-2.04V141.153z"/>
	<path fill="none" stroke="#2E75B6" stroke-miterlimit="10" d="M715.689,141.153c0-1.13,0.91-2.04,2.041-2.04h68.52
		c1.119,0,2.039,0.91,2.039,2.04v8.16c0,1.13-0.92,2.04-2.039,2.04h-68.52c-1.131,0-2.041-0.91-2.041-2.04V141.153z"/>
	<g>
		<defs>
			<rect id="SVGID_97_" x="716.279" y="139.673" width="71.4" height="11.04"/>
		</defs>
		<clipPath id="SVGID_98_">
			<use xlink:href="#SVGID_97_"  overflow="visible"/>
		</clipPath>
		<g clip-path="url(#SVGID_98_)">
			<text transform="matrix(1 0 0 1 745.25 149.4131)"><tspan x="0" y="0" font-family="'Calibri'" font-size="12">D</tspan><tspan x="7.431" y="0" font-family="'Calibri'" font-size="12">5</tspan></text>
		</g>
	</g>
	<path fill-rule="evenodd" clip-rule="evenodd" fill="#5CD4FE" d="M715.689,153.395c0-1.127,0.91-2.041,2.041-2.041h68.52
		c1.119,0,2.039,0.914,2.039,2.041v8.159c0,1.128-0.92,2.04-2.039,2.04h-68.52c-1.131,0-2.041-0.912-2.041-2.04V153.395z"/>
	<path fill="none" stroke="#2E75B6" stroke-miterlimit="10" d="M715.689,153.395c0-1.127,0.91-2.041,2.041-2.041h68.52
		c1.119,0,2.039,0.914,2.039,2.041v8.159c0,1.128-0.92,2.04-2.039,2.04h-68.52c-1.131,0-2.041-0.912-2.041-2.04V153.395z"/>
	<g>
		<defs>
			<rect id="SVGID_99_" x="716.279" y="151.913" width="71.4" height="11.04"/>
		</defs>
		<clipPath id="SVGID_100_">
			<use xlink:href="#SVGID_99_"  overflow="visible"/>
		</clipPath>
		<g clip-path="url(#SVGID_100_)">
			<text transform="matrix(1 0 0 1 745.25 161.6572)"><tspan x="0" y="0" font-family="'Calibri'" font-size="12">D</tspan><tspan x="7.431" y="0" font-family="'Calibri'" font-size="12">4</tspan></text>
		</g>
	</g>
	<path fill-rule="evenodd" clip-rule="evenodd" fill="#5CD4FE" d="M614.182,141.233c0-1.13,0.913-2.04,2.04-2.04h83.138
		c1.131,0,2.041,0.91,2.041,2.04v8.16c0,1.13-0.91,2.04-2.041,2.04h-83.138c-1.127,0-2.04-0.91-2.04-2.04V141.233z"/>
	<path fill="none" stroke="#2E75B6" stroke-miterlimit="10" d="M614.182,141.233c0-1.13,0.913-2.04,2.04-2.04h83.138
		c1.131,0,2.041,0.91,2.041,2.04v8.16c0,1.13-0.91,2.04-2.041,2.04h-83.138c-1.127,0-2.04-0.91-2.04-2.04V141.233z"/>
	<g>
		<defs>
			<rect id="SVGID_101_" x="614.76" y="139.793" width="86.04" height="11.04"/>
		</defs>
		<clipPath id="SVGID_102_">
			<use xlink:href="#SVGID_101_"  overflow="visible"/>
		</clipPath>
		<g clip-path="url(#SVGID_102_)">
			<text transform="matrix(1 0 0 1 621.9844 149.1533)"><tspan x="0" y="0" font-family="'Calibri'" font-size="11.04">P</tspan><tspan x="5.747" y="0" font-family="'Calibri'" font-size="11.04">0</tspan><tspan x="11.375" y="0" font-family="'Calibri'" font-size="11.04">.14</tspan></text>
		</g>
	</g>
	<path fill-rule="evenodd" clip-rule="evenodd" fill="#5CD4FE" d="M614.182,153.474c0-1.128,0.913-2.04,2.04-2.04h83.138
		c1.131,0,2.041,0.912,2.041,2.04v8.159c0,1.127-0.91,2.04-2.041,2.04h-83.138c-1.127,0-2.04-0.913-2.04-2.04V153.474z"/>
	<path fill="none" stroke="#2E75B6" stroke-miterlimit="10" d="M614.182,153.474c0-1.128,0.913-2.04,2.04-2.04h83.138
		c1.131,0,2.041,0.912,2.041,2.04v8.159c0,1.127-0.91,2.04-2.041,2.04h-83.138c-1.127,0-2.04-0.913-2.04-2.04V153.474z"/>
	<g>
		<defs>
			<rect id="SVGID_103_" x="614.76" y="152.033" width="86.04" height="11.04"/>
		</defs>
		<clipPath id="SVGID_104_">
			<use xlink:href="#SVGID_103_"  overflow="visible"/>
		</clipPath>
		<g clip-path="url(#SVGID_104_)">
			<text transform="matrix(1 0 0 1 621.9844 161.3936)"><tspan x="0" y="0" font-family="'Calibri'" font-size="11.04">P</tspan><tspan x="5.747" y="0" font-family="'Calibri'" font-size="11.04">0</tspan><tspan x="11.375" y="0" font-family="'Calibri'" font-size="11.04">.12</tspan></text>
		</g>
	</g>
	
		<line fill="none" stroke="#000000" stroke-width="2.25" stroke-miterlimit="10" x1="701.539" y1="72.863" x2="817.72" y2="72.863"/>
	<line fill="none" stroke="#000000" stroke-width="2.25" stroke-miterlimit="10" x1="701.6" y1="84.983" x2="817.76" y2="84.983"/>
	<line fill="none" stroke="#000000" stroke-width="2.25" stroke-miterlimit="10" x1="701.85" y1="23.293" x2="818.01" y2="23.293"/>
	<line fill="none" stroke="#000000" stroke-width="2.25" stroke-miterlimit="10" x1="701.91" y1="35.293" x2="818.07" y2="35.293"/>
	<line fill="none" stroke="#000000" stroke-width="2.25" stroke-miterlimit="10" x1="701.98" y1="47.913" x2="818.14" y2="47.913"/>
	<line fill="none" stroke="#000000" stroke-width="2.25" stroke-miterlimit="10" x1="702.05" y1="59.563" x2="818.21" y2="59.563"/>
	<path fill-rule="evenodd" clip-rule="evenodd" fill="#FFFF00" d="M715.92,43.513c0-1.13,0.91-2.039,2.04-2.039h68.521
		c1.129,0,2.039,0.909,2.039,2.039v8.16c0,1.12-0.91,2.04-2.039,2.04H717.96c-1.13,0-2.04-0.92-2.04-2.04V43.513z"/>
	<path fill="none" stroke="#FFC000" stroke-miterlimit="10" d="M715.92,43.513c0-1.13,0.91-2.039,2.04-2.039h68.521
		c1.129,0,2.039,0.909,2.039,2.039v8.16c0,1.12-0.91,2.04-2.039,2.04H717.96c-1.13,0-2.04-0.92-2.04-2.04V43.513z"/>
	<g>
		<defs>
			<rect id="SVGID_105_" x="716.52" y="42.113" width="71.4" height="11.04"/>
		</defs>
		<clipPath id="SVGID_106_">
			<use xlink:href="#SVGID_105_"  overflow="visible"/>
		</clipPath>
		<g clip-path="url(#SVGID_106_)">
			<text transform="matrix(1 0 0 1 743.6602 51.7334)"><tspan x="0" y="0" font-family="'Calibri'" font-size="12">I</tspan><tspan x="3.011" y="0" font-family="'Calibri'" font-size="12">O</tspan><tspan x="10.932" y="0" font-family="'Calibri'" font-size="12">3</tspan></text>
		</g>
	</g>
	<path fill-rule="evenodd" clip-rule="evenodd" fill="#FFFF00" d="M715.92,55.713c0-1.109,0.9-2,2.01-2h68.58
		c1.109,0,2.01,0.891,2.01,2v8.03c0,1.11-0.9,2.01-2.01,2.01h-68.58c-1.109,0-2.01-0.899-2.01-2.01V55.713z"/>
	<path fill="none" stroke="#FFC000" stroke-miterlimit="10" d="M715.92,55.713c0-1.109,0.9-2,2.01-2h68.58
		c1.109,0,2.01,0.891,2.01,2v8.03c0,1.11-0.9,2.01-2.01,2.01h-68.58c-1.109,0-2.01-0.899-2.01-2.01V55.713z"/>
	<g>
		<defs>
			<rect id="SVGID_107_" x="716.52" y="54.233" width="71.4" height="10.92"/>
		</defs>
		<clipPath id="SVGID_108_">
			<use xlink:href="#SVGID_107_"  overflow="visible"/>
		</clipPath>
		<g clip-path="url(#SVGID_108_)">
			<text transform="matrix(1 0 0 1 743.6602 63.8828)"><tspan x="0" y="0" font-family="'Calibri'" font-size="12">I</tspan><tspan x="3.011" y="0" font-family="'Calibri'" font-size="12">O</tspan><tspan x="10.932" y="0" font-family="'Calibri'" font-size="12">2</tspan></text>
		</g>
	</g>
	<path fill-rule="evenodd" clip-rule="evenodd" fill="#FFFF00" d="M715.92,31.073c0-1.13,0.91-2.04,2.04-2.04h68.521
		c1.129,0,2.039,0.91,2.039,2.04v8.16c0,1.13-0.91,2.04-2.039,2.04H717.96c-1.13,0-2.04-0.91-2.04-2.04V31.073z"/>
	<path fill="none" stroke="#FFC000" stroke-miterlimit="10" d="M715.92,31.073c0-1.13,0.91-2.04,2.04-2.04h68.521
		c1.129,0,2.039,0.91,2.039,2.04v8.16c0,1.13-0.91,2.04-2.039,2.04H717.96c-1.13,0-2.04-0.91-2.04-2.04V31.073z"/>
	<g>
		<defs>
			<rect id="SVGID_109_" x="716.52" y="29.633" width="71.4" height="11.04"/>
		</defs>
		<clipPath id="SVGID_110_">
			<use xlink:href="#SVGID_109_"  overflow="visible"/>
		</clipPath>
		<g clip-path="url(#SVGID_110_)">
			<text transform="matrix(1 0 0 1 743.6602 39.3027)"><tspan x="0" y="0" font-family="'Calibri'" font-size="12">I</tspan><tspan x="3.011" y="0" font-family="'Calibri'" font-size="12">O</tspan><tspan x="10.932" y="0" font-family="'Calibri'" font-size="12">4</tspan></text>
		</g>
	</g>
	<path fill-rule="evenodd" clip-rule="evenodd" fill="#FFFF00" d="M715.92,67.793c0-1.13,0.91-2.04,2.04-2.04h68.521
		c1.129,0,2.039,0.91,2.039,2.04v8.16c0,1.13-0.91,2.04-2.039,2.04H717.96c-1.13,0-2.04-0.91-2.04-2.04V67.793z"/>
	<path fill="none" stroke="#FFC000" stroke-miterlimit="10" d="M715.92,67.793c0-1.13,0.91-2.04,2.04-2.04h68.521
		c1.129,0,2.039,0.91,2.039,2.04v8.16c0,1.13-0.91,2.04-2.039,2.04H717.96c-1.13,0-2.04-0.91-2.04-2.04V67.793z"/>
	<g>
		<defs>
			<rect id="SVGID_111_" x="716.52" y="66.354" width="71.4" height="11.04"/>
		</defs>
		<clipPath id="SVGID_112_">
			<use xlink:href="#SVGID_111_"  overflow="visible"/>
		</clipPath>
		<g clip-path="url(#SVGID_112_)">
			<text transform="matrix(1 0 0 1 743.6602 76.0234)"><tspan x="0" y="0" font-family="'Calibri'" font-size="12">I</tspan><tspan x="3.011" y="0" font-family="'Calibri'" font-size="12">O</tspan><tspan x="10.932" y="0" font-family="'Calibri'" font-size="12">1</tspan></text>
		</g>
	</g>
	<path fill-rule="evenodd" clip-rule="evenodd" fill="#FFFF00" d="M715.92,80.033c0-1.13,0.91-2.04,2.04-2.04h68.521
		c1.129,0,2.039,0.91,2.039,2.04v8.16c0,1.13-0.91,2.04-2.039,2.04H717.96c-1.13,0-2.04-0.91-2.04-2.04V80.033z"/>
	<path fill="none" stroke="#FFC000" stroke-miterlimit="10" d="M715.92,80.033c0-1.13,0.91-2.04,2.04-2.04h68.521
		c1.129,0,2.039,0.91,2.039,2.04v8.16c0,1.13-0.91,2.04-2.039,2.04H717.96c-1.13,0-2.04-0.91-2.04-2.04V80.033z"/>
	<g>
		<defs>
			<rect id="SVGID_113_" x="716.52" y="78.593" width="71.4" height="11.04"/>
		</defs>
		<clipPath id="SVGID_114_">
			<use xlink:href="#SVGID_113_"  overflow="visible"/>
		</clipPath>
		<g clip-path="url(#SVGID_114_)">
			<text transform="matrix(1 0 0 1 743.6602 88.2627)"><tspan x="0" y="0" font-family="'Calibri'" font-size="12.024">IO</tspan><tspan x="10.941" y="0" font-family="'Calibri'" font-size="12.024">0</tspan></text>
		</g>
	</g>
	<path fill-rule="evenodd" clip-rule="evenodd" fill="#FFFF00" d="M614.279,31.073c0-1.13,0.914-2.04,2.041-2.04h83.039
		c1.131,0,2.041,0.91,2.041,2.04v8.16c0,1.13-0.91,2.04-2.041,2.04H616.32c-1.127,0-2.041-0.91-2.041-2.04V31.073z"/>
	<path fill="none" stroke="#FFC000" stroke-miterlimit="10" d="M614.279,31.073c0-1.13,0.914-2.04,2.041-2.04h83.039
		c1.131,0,2.041,0.91,2.041,2.04v8.16c0,1.13-0.91,2.04-2.041,2.04H616.32c-1.127,0-2.041-0.91-2.041-2.04V31.073z"/>
	<g>
		<defs>
			<rect id="SVGID_115_" x="614.88" y="29.633" width="85.92" height="11.04"/>
		</defs>
		<clipPath id="SVGID_116_">
			<use xlink:href="#SVGID_115_"  overflow="visible"/>
		</clipPath>
		<g clip-path="url(#SVGID_116_)">
			<text transform="matrix(1 0 0 1 622.1035 38.9434)"><tspan x="0" y="0" font-family="'Calibri'" font-size="11.04">P</tspan><tspan x="5.748" y="0" font-family="'Calibri'" font-size="11.04">0</tspan><tspan x="11.377" y="0" font-family="'Calibri'" font-size="11.04">.19</tspan></text>
		</g>
	</g>
	<path fill-rule="evenodd" clip-rule="evenodd" fill="#FFFF00" d="M614.279,43.313c0-1.13,0.914-2.04,2.041-2.04h83.039
		c1.131,0,2.041,0.91,2.041,2.04v8.16c0,1.13-0.91,2.039-2.041,2.039H616.32c-1.127,0-2.041-0.909-2.041-2.039V43.313z"/>
	<path fill="none" stroke="#FFC000" stroke-miterlimit="10" d="M614.279,43.313c0-1.13,0.914-2.04,2.041-2.04h83.039
		c1.131,0,2.041,0.91,2.041,2.04v8.16c0,1.13-0.91,2.039-2.041,2.039H616.32c-1.127,0-2.041-0.909-2.041-2.039V43.313z"/>
	<g>
		<defs>
			<rect id="SVGID_117_" x="614.88" y="41.873" width="85.92" height="11.04"/>
		</defs>
		<clipPath id="SVGID_118_">
			<use xlink:href="#SVGID_117_"  overflow="visible"/>
		</clipPath>
		<g clip-path="url(#SVGID_118_)">
			<text transform="matrix(1 0 0 1 622.1035 51.2129)"><tspan x="0" y="0" font-family="'Calibri'" font-size="11.04">P</tspan><tspan x="5.748" y="0" font-family="'Calibri'" font-size="11.04">0</tspan><tspan x="11.377" y="0" font-family="'Calibri'" font-size="11.04">.13</tspan></text>
		</g>
	</g>
	<path fill-rule="evenodd" clip-rule="evenodd" fill="#FFFF00" d="M614.279,55.713c0-1.109,0.899-2,2.008-2h83.103
		c1.11,0,2.011,0.891,2.011,2v8.03c0,1.11-0.9,2.01-2.011,2.01h-83.103c-1.108,0-2.008-0.899-2.008-2.01V55.713z"/>
	<path fill="none" stroke="#FFC000" stroke-miterlimit="10" d="M614.279,55.713c0-1.109,0.899-2,2.008-2h83.103
		c1.11,0,2.011,0.891,2.011,2v8.03c0,1.11-0.9,2.01-2.011,2.01h-83.103c-1.108,0-2.008-0.899-2.008-2.01V55.713z"/>
	<g>
		<defs>
			<rect id="SVGID_119_" x="614.88" y="54.233" width="85.92" height="10.92"/>
		</defs>
		<clipPath id="SVGID_120_">
			<use xlink:href="#SVGID_119_"  overflow="visible"/>
		</clipPath>
		<g clip-path="url(#SVGID_120_)">
			<text transform="matrix(1 0 0 1 622.0801 63.543)"><tspan x="0" y="0" font-family="'Calibri'" font-size="11.04">P</tspan><tspan x="5.747" y="0" font-family="'Calibri'" font-size="11.04">0</tspan><tspan x="11.375" y="0" font-family="'Calibri'" font-size="11.04">.17</tspan></text>
		</g>
	</g>
	<path fill-rule="evenodd" clip-rule="evenodd" fill="#FFFF00" d="M614.279,67.793c0-1.13,0.914-2.04,2.041-2.04h83.039
		c1.131,0,2.041,0.91,2.041,2.04v8.16c0,1.13-0.91,2.04-2.041,2.04H616.32c-1.127,0-2.041-0.91-2.041-2.04V67.793z"/>
	<path fill="none" stroke="#FFC000" stroke-miterlimit="10" d="M614.279,67.793c0-1.13,0.914-2.04,2.041-2.04h83.039
		c1.131,0,2.041,0.91,2.041,2.04v8.16c0,1.13-0.91,2.04-2.041,2.04H616.32c-1.127,0-2.041-0.91-2.041-2.04V67.793z"/>
	<g>
		<defs>
			<rect id="SVGID_121_" x="614.88" y="66.354" width="85.92" height="11.04"/>
		</defs>
		<clipPath id="SVGID_122_">
			<use xlink:href="#SVGID_121_"  overflow="visible"/>
		</clipPath>
		<g clip-path="url(#SVGID_122_)">
			<text transform="matrix(1 0 0 1 622.1035 75.6934)"><tspan x="0" y="0" font-family="'Calibri'" font-size="11.04">P</tspan><tspan x="5.748" y="0" font-family="'Calibri'" font-size="11.04">0</tspan><tspan x="11.377" y="0" font-family="'Calibri'" font-size="11.04">.16</tspan></text>
		</g>
	</g>
	<path fill-rule="evenodd" clip-rule="evenodd" fill="#FFFF00" d="M614.279,80.033c0-1.13,0.914-2.04,2.041-2.04h83.039
		c1.131,0,2.041,0.91,2.041,2.04v8.16c0,1.13-0.91,2.04-2.041,2.04H616.32c-1.127,0-2.041-0.91-2.041-2.04V80.033z"/>
	<path fill="none" stroke="#FFC000" stroke-miterlimit="10" d="M614.279,80.033c0-1.13,0.914-2.04,2.041-2.04h83.039
		c1.131,0,2.041,0.91,2.041,2.04v8.16c0,1.13-0.91,2.04-2.041,2.04H616.32c-1.127,0-2.041-0.91-2.041-2.04V80.033z"/>
	<g>
		<defs>
			<rect id="SVGID_123_" x="614.88" y="78.593" width="85.92" height="11.04"/>
		</defs>
		<clipPath id="SVGID_124_">
			<use xlink:href="#SVGID_123_"  overflow="visible"/>
		</clipPath>
		<g clip-path="url(#SVGID_124_)">
			<text transform="matrix(1 0 0 1 622.1035 87.9336)"><tspan x="0" y="0" font-family="'Calibri'" font-size="11.04">P</tspan><tspan x="5.748" y="0" font-family="'Calibri'" font-size="11.04">0</tspan><tspan x="11.377" y="0" font-family="'Calibri'" font-size="11.04">.15</tspan></text>
		</g>
	</g>
	<path fill-rule="evenodd" clip-rule="evenodd" fill="#FF3300" d="M614.279,128.993c0-1.13,0.914-2.04,2.041-2.04h83.039
		c1.131,0,2.041,0.91,2.041,2.04v8.16c0,1.13-0.91,2.04-2.041,2.04H616.32c-1.127,0-2.041-0.91-2.041-2.04V128.993z"/>
	<path fill="none" stroke="#A80000" stroke-miterlimit="10" d="M614.279,128.993c0-1.13,0.914-2.04,2.041-2.04h83.039
		c1.131,0,2.041,0.91,2.041,2.04v8.16c0,1.13-0.91,2.04-2.041,2.04H616.32c-1.127,0-2.041-0.91-2.041-2.04V128.993z"/>
	<g>
		<defs>
			<rect id="SVGID_125_" x="614.88" y="127.553" width="85.92" height="11.04"/>
		</defs>
		<clipPath id="SVGID_126_">
			<use xlink:href="#SVGID_125_"  overflow="visible"/>
		</clipPath>
		<g clip-path="url(#SVGID_126_)">
			<text transform="matrix(1 0 0 1 622.1035 137.2529)"><tspan x="0" y="0" fill="#FFFFFF" font-family="'Calibri'" font-size="12">V</tspan><tspan x="6.821" y="0" fill="#FFFFFF" font-family="'Calibri'" font-size="12">CC</tspan><tspan x="19.546" y="0" fill="#FFFFFF" font-family="'Calibri'" font-size="12">_</tspan><tspan x="25.522" y="0" fill="#FFFFFF" font-family="'Calibri'" font-size="12">3</tspan><tspan x="31.652" y="0" fill="#FFFFFF" font-family="'Calibri'" font-size="12">V</tspan><tspan x="38.473" y="0" fill="#FFFFFF" font-family="'Calibri'" font-size="12">3</tspan></text>
		</g>
	</g>
	<line fill="none" stroke="#000000" stroke-width="2.25" stroke-miterlimit="10" x1="961.5" y1="22.934" x2="1077.66" y2="22.934"/>
	
		<line fill="none" stroke="#000000" stroke-width="2.25" stroke-miterlimit="10" x1="961.63" y1="35.063" x2="1077.79" y2="35.063"/>
	<path fill-rule="evenodd" clip-rule="evenodd" fill="#FF9F9F" d="M1078.92,43.343c0-1.14,0.93-2.069,2.07-2.069h82.979
		c1.14,0,2.07,0.93,2.07,2.069v8.29c0,1.15-0.931,2.08-2.07,2.08h-82.979c-1.141,0-2.07-0.93-2.07-2.08V43.343z"/>
	<path fill="none" stroke="#A80000" stroke-miterlimit="10" d="M1078.92,43.343c0-1.14,0.93-2.069,2.07-2.069h82.979
		c1.14,0,2.07,0.93,2.07,2.069v8.29c0,1.15-0.931,2.08-2.07,2.08h-82.979c-1.141,0-2.07-0.93-2.07-2.08V43.343z"/>
	<g>
		<defs>
			<rect id="SVGID_127_" x="1079.52" y="41.873" width="85.92" height="11.28"/>
		</defs>
		<clipPath id="SVGID_128_">
			<use xlink:href="#SVGID_127_"  overflow="visible"/>
		</clipPath>
		<g clip-path="url(#SVGID_128_)">
			<text transform="matrix(1 0 0 1 1086.8193 51.3027)"><tspan x="0" y="0" font-family="'Calibri'" font-size="11.04">P</tspan><tspan x="5.747" y="0" font-family="'Calibri'" font-size="11.04">0</tspan><tspan x="11.376" y="0" font-family="'Calibri'" font-size="11.04">.25</tspan></text>
		</g>
	</g>
	<path fill-rule="evenodd" clip-rule="evenodd" fill="#FF9F9F" d="M1078.92,55.713c0-1.109,0.899-2,2.01-2h83.1
		c1.11,0,2.011,0.891,2.011,2v8.03c0,1.11-0.9,2.01-2.011,2.01h-83.1c-1.11,0-2.01-0.899-2.01-2.01V55.713z"/>
	<path fill="none" stroke="#A80000" stroke-miterlimit="10" d="M1078.92,55.713c0-1.109,0.899-2,2.01-2h83.1
		c1.11,0,2.011,0.891,2.011,2v8.03c0,1.11-0.9,2.01-2.011,2.01h-83.1c-1.11,0-2.01-0.899-2.01-2.01V55.713z"/>
	<g>
		<defs>
			<rect id="SVGID_129_" x="1079.52" y="54.233" width="85.92" height="10.92"/>
		</defs>
		<clipPath id="SVGID_130_">
			<use xlink:href="#SVGID_129_"  overflow="visible"/>
		</clipPath>
		<g clip-path="url(#SVGID_130_)">
			<text transform="matrix(1 0 0 1 1086.79 63.543)"><tspan x="0" y="0" font-family="'Calibri'" font-size="11.04">P</tspan><tspan x="5.747" y="0" font-family="'Calibri'" font-size="11.04">0</tspan><tspan x="11.376" y="0" font-family="'Calibri'" font-size="11.04">.24</tspan></text>
		</g>
	</g>
	<path fill-rule="evenodd" clip-rule="evenodd" fill="#FF9F9F" d="M933.72,24.113c0-4.04,3.28-7.32,7.319-7.32H970.3
		c4.04,0,7.319,3.28,7.319,7.32v59.29c0,4.04-3.279,7.32-7.319,7.32h-29.261c-4.039,0-7.319-3.28-7.319-7.32V24.113z"/>
	<path fill="none" stroke="#A80000" stroke-miterlimit="10" d="M933.72,24.113c0-4.04,3.28-7.32,7.319-7.32H970.3
		c4.04,0,7.319,3.28,7.319,7.32v59.29c0,4.04-3.279,7.32-7.319,7.32h-29.261c-4.039,0-7.319-3.28-7.319-7.32V24.113z"/>
	<g>
		<defs>
			<rect id="SVGID_131_" x="599.76" y="-289.207" width="581.76" height="466.08"/>
		</defs>
		<clipPath id="SVGID_132_">
			<use xlink:href="#SVGID_131_"  overflow="visible"/>
		</clipPath>
		<g clip-path="url(#SVGID_132_)">
			<text transform="matrix(1 0 0 1 941.0859 56.4336)" font-family="'Calibri'" font-size="12">UAR</text>
		</g>
	</g>
	<g>
		<defs>
			<rect id="SVGID_133_" x="602.094" y="-291.873" width="581.76" height="466.08"/>
		</defs>
		<clipPath id="SVGID_134_">
			<use xlink:href="#SVGID_133_"  overflow="visible"/>
		</clipPath>
		<g clip-path="url(#SVGID_134_)">
			<text transform="matrix(1 0 0 1 962.8135 56.4336)" font-family="'Calibri'" font-size="12">T</text>
		</g>
	</g>
	<path fill-rule="evenodd" clip-rule="evenodd" fill="#FF9F9F" d="M991.779,43.313c0-1.13,0.92-2.04,2.041-2.04h68.539
		c1.131,0,2.04,0.91,2.04,2.04v8.16c0,1.13-0.909,2.039-2.04,2.039H993.82c-1.121,0-2.041-0.909-2.041-2.039V43.313z"/>
	<path fill="none" stroke="#A80000" stroke-miterlimit="10" d="M991.779,43.313c0-1.13,0.92-2.04,2.041-2.04h68.539
		c1.131,0,2.04,0.91,2.04,2.04v8.16c0,1.13-0.909,2.039-2.04,2.039H993.82c-1.121,0-2.041-0.909-2.041-2.039V43.313z"/>
	<g>
		<defs>
			<rect id="SVGID_135_" x="992.4" y="41.873" width="71.399" height="11.04"/>
		</defs>
		<clipPath id="SVGID_136_">
			<use xlink:href="#SVGID_135_"  overflow="visible"/>
		</clipPath>
		<g clip-path="url(#SVGID_136_)">
			<text transform="matrix(1 0 0 1 1022.0898 51.543)"><tspan x="0" y="0" font-family="'Calibri'" font-size="12">T</tspan><tspan x="5.872" y="0" font-family="'Calibri'" font-size="12">X</tspan></text>
		</g>
	</g>
	<path fill-rule="evenodd" clip-rule="evenodd" fill="#FF9F9F" d="M991.779,55.583c0-1.12,0.91-2.03,2.041-2.03h68.55
		c1.12,0,2.029,0.91,2.029,2.03v8.141c0,1.119-0.909,2.029-2.029,2.029h-68.55c-1.131,0-2.041-0.91-2.041-2.029V55.583z"/>
	<path fill="none" stroke="#A80000" stroke-miterlimit="10" d="M991.779,55.583c0-1.12,0.91-2.03,2.041-2.03h68.55
		c1.12,0,2.029,0.91,2.029,2.03v8.141c0,1.119-0.909,2.029-2.029,2.029h-68.55c-1.131,0-2.041-0.91-2.041-2.029V55.583z"/>
	<g>
		<defs>
			<rect id="SVGID_137_" x="992.4" y="54.113" width="71.399" height="11.04"/>
		</defs>
		<clipPath id="SVGID_138_">
			<use xlink:href="#SVGID_137_"  overflow="visible"/>
		</clipPath>
		<g clip-path="url(#SVGID_138_)">
			<text transform="matrix(1 0 0 1 1021.7295 63.8135)"><tspan x="0" y="0" font-family="'Calibri'" font-size="12">R</tspan><tspan x="6.491" y="0" font-family="'Calibri'" font-size="12">X</tspan></text>
		</g>
	</g>
	<path fill-rule="evenodd" clip-rule="evenodd" fill="#FF9F9F" d="M991.8,67.793c0-1.13,0.91-2.04,2.04-2.04h68.52
		c1.131,0,2.04,0.91,2.04,2.04v8.16c0,1.13-0.909,2.04-2.04,2.04h-68.52c-1.13,0-2.04-0.91-2.04-2.04V67.793z"/>
	<path fill="none" stroke="#A80000" stroke-miterlimit="10" d="M991.8,67.793c0-1.13,0.91-2.04,2.04-2.04h68.52
		c1.131,0,2.04,0.91,2.04,2.04v8.16c0,1.13-0.909,2.04-2.04,2.04h-68.52c-1.13,0-2.04-0.91-2.04-2.04V67.793z"/>
	<g>
		<defs>
			<rect id="SVGID_139_" x="992.4" y="66.354" width="71.399" height="11.04"/>
		</defs>
		<clipPath id="SVGID_140_">
			<use xlink:href="#SVGID_139_"  overflow="visible"/>
		</clipPath>
		<g clip-path="url(#SVGID_140_)">
			<text transform="matrix(1 0 0 1 1019.2295 76.0234)" font-family="'Calibri'" font-size="12">RTS</text>
		</g>
	</g>
	<path fill-rule="evenodd" clip-rule="evenodd" fill="#FF9F9F" d="M991.8,80.033c0-1.13,0.91-2.04,2.04-2.04h68.52
		c1.131,0,2.04,0.91,2.04,2.04v8.16c0,1.13-0.909,2.04-2.04,2.04h-68.52c-1.13,0-2.04-0.91-2.04-2.04V80.033z"/>
	<path fill="none" stroke="#A80000" stroke-miterlimit="10" d="M991.8,80.033c0-1.13,0.91-2.04,2.04-2.04h68.52
		c1.131,0,2.04,0.91,2.04,2.04v8.16c0,1.13-0.909,2.04-2.04,2.04h-68.52c-1.13,0-2.04-0.91-2.04-2.04V80.033z"/>
	<g>
		<defs>
			<rect id="SVGID_141_" x="992.4" y="78.593" width="71.399" height="11.04"/>
		</defs>
		<clipPath id="SVGID_142_">
			<use xlink:href="#SVGID_141_"  overflow="visible"/>
		</clipPath>
		<g clip-path="url(#SVGID_142_)">
			<text transform="matrix(1 0 0 1 1019.2295 88.2627)"><tspan x="0" y="0" font-family="'Calibri'" font-size="12.024">C</tspan><tspan x="6.363" y="0" font-family="'Calibri'" font-size="12.024">TS</tspan></text>
		</g>
	</g>
	<path fill-rule="evenodd" clip-rule="evenodd" fill="#FF9F9F" d="M1078.92,67.823c0-1.14,0.93-2.07,2.07-2.07h82.979
		c1.14,0,2.07,0.931,2.07,2.07v8.26c0,1.141-0.931,2.07-2.07,2.07h-82.979c-1.141,0-2.07-0.93-2.07-2.07V67.823z"/>
	<path fill="none" stroke="#A80000" stroke-miterlimit="10" d="M1078.92,67.823c0-1.14,0.93-2.07,2.07-2.07h82.979
		c1.14,0,2.07,0.931,2.07,2.07v8.26c0,1.141-0.931,2.07-2.07,2.07h-82.979c-1.141,0-2.07-0.93-2.07-2.07V67.823z"/>
	<g>
		<defs>
			<rect id="SVGID_143_" x="1079.52" y="66.354" width="85.92" height="11.159"/>
		</defs>
		<clipPath id="SVGID_144_">
			<use xlink:href="#SVGID_143_"  overflow="visible"/>
		</clipPath>
		<g clip-path="url(#SVGID_144_)">
			<text transform="matrix(1 0 0 1 1086.8193 75.7627)"><tspan x="0" y="0" font-family="'Calibri'" font-size="11.04">P</tspan><tspan x="5.747" y="0" font-family="'Calibri'" font-size="11.04">0</tspan><tspan x="11.376" y="0" font-family="'Calibri'" font-size="11.04">.23</tspan></text>
		</g>
	</g>
	<path fill-rule="evenodd" clip-rule="evenodd" fill="#FF9F9F" d="M1078.92,80.043c0-1.109,0.899-2.01,2.01-2.01h83.08
		c1.11,0,2.01,0.9,2.01,2.01v8.05c0,1.12-0.899,2.021-2.01,2.021h-83.08c-1.11,0-2.01-0.9-2.01-2.021V80.043z"/>
	<path fill="none" stroke="#A80000" stroke-miterlimit="10" d="M1078.92,80.043c0-1.109,0.899-2.01,2.01-2.01h83.08
		c1.11,0,2.01,0.9,2.01,2.01v8.05c0,1.12-0.899,2.021-2.01,2.021h-83.08c-1.11,0-2.01-0.9-2.01-2.021V80.043z"/>
	<g>
		<defs>
			<rect id="SVGID_145_" x="1079.52" y="78.593" width="85.92" height="10.92"/>
		</defs>
		<clipPath id="SVGID_146_">
			<use xlink:href="#SVGID_145_"  overflow="visible"/>
		</clipPath>
		<g clip-path="url(#SVGID_146_)">
			<text transform="matrix(1 0 0 1 1086.79 87.8828)"><tspan x="0" y="0" font-family="'Calibri'" font-size="11.04">P</tspan><tspan x="5.747" y="0" font-family="'Calibri'" font-size="11.04">0</tspan><tspan x="11.376" y="0" font-family="'Calibri'" font-size="11.04">.21</tspan></text>
		</g>
	</g>
	<path fill-rule="evenodd" clip-rule="evenodd" fill="#FF3300" d="M1078.92,92.273c0-1.13,0.91-2.04,2.04-2.04H1164
		c1.13,0,2.04,0.91,2.04,2.04v8.16c0,1.13-0.91,2.04-2.04,2.04h-83.04c-1.13,0-2.04-0.91-2.04-2.04V92.273z"/>
	<path fill="none" stroke="#A80000" stroke-miterlimit="10" d="M1078.92,92.273c0-1.13,0.91-2.04,2.04-2.04H1164
		c1.13,0,2.04,0.91,2.04,2.04v8.16c0,1.13-0.91,2.04-2.04,2.04h-83.04c-1.13,0-2.04-0.91-2.04-2.04V92.273z"/>
	<g>
		<defs>
			<rect id="SVGID_147_" x="1079.52" y="90.833" width="85.92" height="11.04"/>
		</defs>
		<clipPath id="SVGID_148_">
			<use xlink:href="#SVGID_147_"  overflow="visible"/>
		</clipPath>
		<g clip-path="url(#SVGID_148_)">
			<text transform="matrix(1 0 0 1 1086.79 100.5332)"><tspan x="0" y="0" fill="#FFFFFF" font-family="'Calibri'" font-size="12">V</tspan><tspan x="6.82" y="0" fill="#FFFFFF" font-family="'Calibri'" font-size="12">B</tspan><tspan x="13.312" y="0" fill="#FFFFFF" font-family="'Calibri'" font-size="12">US</tspan></text>
		</g>
	</g>
	
		<line fill="none" stroke="#000000" stroke-width="2.25" stroke-miterlimit="10" x1="962.39" y1="97.253" x2="1078.55" y2="97.253"/>
	<path fill-rule="evenodd" clip-rule="evenodd" fill="#FFFF00" d="M803.039,23.793c0-3.99,3.24-7.229,7.23-7.229h28.91
		c4,0,7.23,3.239,7.23,7.229v58.98c0,3.989-3.23,7.229-7.23,7.229h-28.91c-3.99,0-7.23-3.24-7.23-7.229V23.793z"/>
	<path fill="none" stroke="#FFC000" stroke-miterlimit="10" d="M803.039,23.793c0-3.99,3.24-7.229,7.23-7.229h28.91
		c4,0,7.23,3.239,7.23,7.229v58.98c0,3.989-3.23,7.229-7.23,7.229h-28.91c-3.99,0-7.23-3.24-7.23-7.229V23.793z"/>
	<g>
		<defs>
			<rect id="SVGID_149_" x="805.199" y="18.713" width="39.121" height="69.12"/>
		</defs>
		<clipPath id="SVGID_150_">
			<use xlink:href="#SVGID_149_"  overflow="visible"/>
		</clipPath>
		<g clip-path="url(#SVGID_150_)">
			<text transform="matrix(1 0 0 1 812.4004 57.4531)" font-family="'Calibri'" font-size="12">GPIO</text>
		</g>
	</g>
	<path d="M874.92,19.713c1.859,0,3.369,1.511,3.369,3.37c0,1.87-1.51,3.38-3.369,3.38c-1.86,0-3.381-1.51-3.381-3.38
		C871.539,21.224,873.06,19.713,874.92,19.713z M845.88,21.963h29.04v2.25h-29.04V21.963z"/>
	<path d="M874.92,32.803c1.859,0,3.369,1.511,3.369,3.381c0,1.859-1.51,3.369-3.369,3.369c-1.86,0-3.381-1.51-3.381-3.369
		C871.539,34.313,873.06,32.803,874.92,32.803z M845.88,35.053h29.04v2.25h-29.04V35.053z"/>
	<path d="M874.92,45.153c1.859,0,3.369,1.51,3.369,3.37c0,1.87-1.51,3.38-3.369,3.38c-1.86,0-3.381-1.521-3.381-3.38
		C871.539,46.663,873.06,45.153,874.92,45.153z M845.88,47.403h29.04v2.25h-29.04V47.403z"/>
	<path d="M874.92,56.434c1.859,0,3.369,1.51,3.369,3.369c0,1.87-1.51,3.381-3.369,3.381c-1.86,0-3.381-1.511-3.381-3.381
		C871.539,57.943,873.06,56.434,874.92,56.434z M845.88,58.684h29.04v2.25h-29.04V58.684z"/>
	<path d="M874.92,68.673c1.859,0,3.369,1.511,3.369,3.37c0,1.87-1.51,3.38-3.369,3.38c-1.86,0-3.381-1.51-3.381-3.38
		C871.539,70.184,873.06,68.673,874.92,68.673z M845.88,70.923h29.04v2.25h-29.04V70.923z"/>
	<path d="M874.92,81.013c1.859,0,3.369,1.511,3.369,3.381c0,1.859-1.51,3.369-3.369,3.369c-1.86,0-3.381-1.51-3.381-3.369
		C871.539,82.523,873.06,81.013,874.92,81.013z M845.88,83.263h29.04v2.25h-29.04V83.263z"/>
	<path d="M875.47,117.633c1.86,0,3.37,1.511,3.37,3.37c0,1.87-1.51,3.38-3.37,3.38c-1.87,0-3.38-1.51-3.38-3.38
		C872.09,119.144,873.6,117.633,875.47,117.633z M846.43,119.883h29.04v2.25h-29.04V119.883z"/>
	<path d="M875.47,130.724c1.86,0,3.37,1.51,3.37,3.38c0,1.859-1.51,3.37-3.37,3.37c-1.87,0-3.38-1.511-3.38-3.37
		C872.09,132.233,873.6,130.724,875.47,130.724z M846.43,132.974h29.04v2.25h-29.04V132.974z"/>
	<path d="M875.47,143.073c1.86,0,3.37,1.51,3.37,3.37c0,1.87-1.51,3.38-3.37,3.38c-1.87,0-3.38-1.521-3.38-3.38
		C872.09,144.583,873.6,143.073,875.47,143.073z M846.43,145.323h29.04v2.25h-29.04V145.323z"/>
	<path d="M875.47,154.352c1.86,0,3.37,1.511,3.37,3.375c0,1.863-1.51,3.375-3.37,3.375c-1.87,0-3.38-1.512-3.38-3.375
		C872.09,155.862,873.6,154.352,875.47,154.352z M846.43,156.602h29.04v2.25h-29.04V156.602z"/>
	<path d="M904.83,19.713c-1.86,0-3.37,1.511-3.37,3.37c0,1.87,1.51,3.38,3.37,3.38c1.869,0,3.38-1.51,3.38-3.38
		C908.21,21.224,906.699,19.713,904.83,19.713z M933.869,21.963H904.83v2.25h29.039V21.963z"/>
	<path d="M904.83,31.833c-1.86,0-3.37,1.51-3.37,3.38c0,1.86,1.51,3.37,3.37,3.37c1.869,0,3.38-1.51,3.38-3.37
		C908.21,33.343,906.699,31.833,904.83,31.833z M933.869,34.083H904.83v2.25h29.039V34.083z"/>
	<path d="M904.83,44.193c-1.86,0-3.37,1.51-3.37,3.37c0,1.87,1.51,3.38,3.37,3.38c1.869,0,3.38-1.51,3.38-3.38
		C908.21,45.703,906.699,44.193,904.83,44.193z M933.869,46.443H904.83v2.25h29.039V46.443z"/>
	<path d="M904.83,56.434c-1.86,0-3.37,1.51-3.37,3.369c0,1.87,1.51,3.381,3.37,3.381c1.869,0,3.38-1.511,3.38-3.381
		C908.21,57.943,906.699,56.434,904.83,56.434z M933.869,58.684H904.83v2.25h29.039V58.684z"/>
	<path d="M904.83,68.673c-1.86,0-3.37,1.511-3.37,3.37c0,1.87,1.51,3.38,3.37,3.38c1.869,0,3.38-1.51,3.38-3.38
		C908.21,70.184,906.699,68.673,904.83,68.673z M933.869,70.923H904.83v2.25h29.039V70.923z"/>
	<path d="M904.83,80.913c-1.86,0-3.37,1.51-3.37,3.37c0,1.87,1.51,3.38,3.37,3.38c1.869,0,3.38-1.51,3.38-3.38
		C908.21,82.423,906.699,80.913,904.83,80.913z M933.869,83.163H904.83v2.25h29.039V83.163z"/>
	<path d="M904.66,93.854c-1.86,0-3.371,1.51-3.371,3.37c0,1.869,1.511,3.38,3.371,3.38c1.869,0,3.379-1.511,3.379-3.38
		C908.039,95.363,906.529,93.854,904.66,93.854z M962.74,96.104h-58.08v2.25h58.08V96.104z"/>
	<path fill-rule="evenodd" clip-rule="evenodd" fill="#404040" d="M614.279,18.934c0-1.181,0.961-2.141,2.146-2.141h82.655
		c1.189,0,2.15,0.96,2.15,2.141v8.579c0,1.19-0.961,2.15-2.15,2.15h-82.655c-1.185,0-2.146-0.96-2.146-2.15V18.934z"/>
	<path fill="none" stroke="#000000" stroke-miterlimit="10" d="M614.279,18.934c0-1.181,0.961-2.141,2.146-2.141h82.655
		c1.189,0,2.15,0.96,2.15,2.141v8.579c0,1.19-0.961,2.15-2.15,2.15h-82.655c-1.185,0-2.146-0.96-2.146-2.15V18.934z"/>
	<g>
		<defs>
			<rect id="SVGID_151_" x="614.88" y="17.394" width="85.68" height="11.64"/>
		</defs>
		<clipPath id="SVGID_152_">
			<use xlink:href="#SVGID_151_"  overflow="visible"/>
		</clipPath>
		<g clip-path="url(#SVGID_152_)">
			<text transform="matrix(1 0 0 1 622.1279 27.373)"><tspan x="0" y="0" fill="#FFFFFF" font-family="'Calibri'" font-size="12">G</tspan><tspan x="7.57" y="0" fill="#FFFFFF" font-family="'Calibri'" font-size="12">N</tspan><tspan x="15.341" y="0" fill="#FFFFFF" font-family="'Calibri'" font-size="12">D</tspan></text>
		</g>
	</g>
	<path fill-rule="evenodd" clip-rule="evenodd" fill="#404040" d="M614.279,116.033c0-1.2,0.979-2.18,2.184-2.18h82.576
		c1.211,0,2.191,0.979,2.191,2.18v8.74c0,1.2-0.98,2.18-2.191,2.18h-82.576c-1.205,0-2.184-0.979-2.184-2.18V116.033z"/>
	<path fill="none" stroke="#000000" stroke-miterlimit="10" d="M614.279,116.033c0-1.2,0.979-2.18,2.184-2.18h82.576
		c1.211,0,2.191,0.979,2.191,2.18v8.74c0,1.2-0.98,2.18-2.191,2.18h-82.576c-1.205,0-2.184-0.979-2.184-2.18V116.033z"/>
	<g>
		<defs>
			<rect id="SVGID_153_" x="614.88" y="114.474" width="85.68" height="11.88"/>
		</defs>
		<clipPath id="SVGID_154_">
			<use xlink:href="#SVGID_153_"  overflow="visible"/>
		</clipPath>
		<g clip-path="url(#SVGID_154_)">
			<text transform="matrix(1 0 0 1 622.1279 124.5732)"><tspan x="0" y="0" fill="#FFFFFF" font-family="'Calibri'" font-size="12">G</tspan><tspan x="7.57" y="0" fill="#FFFFFF" font-family="'Calibri'" font-size="12">N</tspan><tspan x="15.341" y="0" fill="#FFFFFF" font-family="'Calibri'" font-size="12">D</tspan></text>
		</g>
	</g>
	<path fill-rule="evenodd" clip-rule="evenodd" fill="#404040" d="M1078.75,18.113c0-1.2,0.97-2.18,2.18-2.18h82.75
		c1.21,0,2.19,0.979,2.19,2.18v8.74c0,1.199-0.98,2.18-2.19,2.18h-82.75c-1.21,0-2.18-0.98-2.18-2.18V18.113z"/>
	<path fill="none" stroke="#000000" stroke-miterlimit="10" d="M1078.75,18.113c0-1.2,0.97-2.18,2.18-2.18h82.75
		c1.21,0,2.19,0.979,2.19,2.18v8.74c0,1.199-0.98,2.18-2.19,2.18h-82.75c-1.21,0-2.18-0.98-2.18-2.18V18.113z"/>
	<g>
		<defs>
			<rect id="SVGID_155_" x="1079.399" y="16.553" width="85.801" height="11.881"/>
		</defs>
		<clipPath id="SVGID_156_">
			<use xlink:href="#SVGID_155_"  overflow="visible"/>
		</clipPath>
		<g clip-path="url(#SVGID_156_)">
			<text transform="matrix(1 0 0 1 1086.6699 26.6328)"><tspan x="0" y="0" fill="#FFFFFF" font-family="'Calibri'" font-size="12">G</tspan><tspan x="7.57" y="0" fill="#FFFFFF" font-family="'Calibri'" font-size="12">N</tspan><tspan x="15.341" y="0" fill="#FFFFFF" font-family="'Calibri'" font-size="12">D</tspan></text>
		</g>
	</g>
	<path fill-rule="evenodd" clip-rule="evenodd" fill="#FF3300" d="M1078.92,31.073c0-1.13,0.91-2.04,2.04-2.04H1164
		c1.13,0,2.04,0.91,2.04,2.04v8.16c0,1.13-0.91,2.04-2.04,2.04h-83.04c-1.13,0-2.04-0.91-2.04-2.04V31.073z"/>
	<path fill="none" stroke="#A80000" stroke-miterlimit="10" d="M1078.92,31.073c0-1.13,0.91-2.04,2.04-2.04H1164
		c1.13,0,2.04,0.91,2.04,2.04v8.16c0,1.13-0.91,2.04-2.04,2.04h-83.04c-1.13,0-2.04-0.91-2.04-2.04V31.073z"/>
	<g>
		<defs>
			<rect id="SVGID_157_" x="1079.52" y="29.633" width="85.92" height="11.04"/>
		</defs>
		<clipPath id="SVGID_158_">
			<use xlink:href="#SVGID_157_"  overflow="visible"/>
		</clipPath>
		<g clip-path="url(#SVGID_158_)">
			<text transform="matrix(1 0 0 1 1086.79 39.3027)"><tspan x="0" y="0" fill="#FFFFFF" font-family="'Calibri'" font-size="12">V</tspan><tspan x="6.82" y="0" fill="#FFFFFF" font-family="'Calibri'" font-size="12">CC</tspan><tspan x="19.546" y="0" fill="#FFFFFF" font-family="'Calibri'" font-size="12">_</tspan><tspan x="25.522" y="0" fill="#FFFFFF" font-family="'Calibri'" font-size="12">3</tspan><tspan x="31.652" y="0" fill="#FFFFFF" font-family="'Calibri'" font-size="12">V</tspan><tspan x="38.473" y="0" fill="#FFFFFF" font-family="'Calibri'" font-size="12">3</tspan><tspan x="44.555" y="0" fill="#FFFFFF" font-family="'Calibri'" font-size="12">_</tspan><tspan x="50.567" y="0" fill="#FFFFFF" font-family="'Calibri'" font-size="12">Ext</tspan></text>
		</g>
	</g>
	<path d="M875.07,94.043c1.869,0,3.379,1.51,3.379,3.38c0,1.86-1.51,3.37-3.379,3.37c-1.86,0-3.371-1.51-3.371-3.37
		C871.699,95.553,873.21,94.043,875.07,94.043z M846.029,96.293h29.041v2.25h-29.041V96.293z"/>
	<path d="M874.83,105.043c1.869,0,3.38,1.51,3.38,3.38c0,1.86-1.511,3.37-3.38,3.37c-1.86,0-3.37-1.51-3.37-3.37
		C871.46,106.553,872.97,105.043,874.83,105.043z M845.789,107.293h29.041v2.25h-29.041V107.293z"/>
	
		<line fill="none" stroke="#FF0000" stroke-width="2.25" stroke-miterlimit="10" x1="841.529" y1="93.663" x2="849.55" y2="102.093"/>
	
		<line fill="none" stroke="#FF0000" stroke-width="2.25" stroke-miterlimit="10" x1="849.43" y1="93.543" x2="841.42" y2="101.974"/>
	
		<line fill="none" stroke="#FF0000" stroke-width="2.25" stroke-miterlimit="10" x1="841.699" y1="104.354" x2="849.71" y2="112.783"/>
	
		<line fill="none" stroke="#FF0000" stroke-width="2.25" stroke-miterlimit="10" x1="849.59" y1="104.243" x2="841.58" y2="112.673"/>
	<path d="M905,105.173c-1.86,0-3.381,1.511-3.381,3.37c0,1.87,1.521,3.38,3.381,3.38c1.859,0,3.369-1.51,3.369-3.38
		C908.369,106.684,906.859,105.173,905,105.173z M934.039,107.423H905v2.25h29.039V107.423z"/>
	
		<line fill="none" stroke="#FF0000" stroke-width="2.25" stroke-miterlimit="10" x1="930.17" y1="104.613" x2="938.18" y2="113.043"/>
	
		<line fill="none" stroke="#FF0000" stroke-width="2.25" stroke-miterlimit="10" x1="938.07" y1="104.493" x2="930.05" y2="112.923"/>
	<path d="M904.869,116.993c-1.859,0-3.369,1.51-3.369,3.38c0,1.86,1.51,3.37,3.369,3.37c1.871,0,3.381-1.51,3.381-3.37
		C908.25,118.503,906.74,116.993,904.869,116.993z M933.91,119.243h-29.041v2.25h29.041V119.243z"/>
	
		<line fill="none" stroke="#FF0000" stroke-width="2.25" stroke-miterlimit="10" x1="930.039" y1="116.434" x2="938.21" y2="124.833"/>
	
		<line fill="none" stroke="#FF0000" stroke-width="2.25" stroke-miterlimit="10" x1="938.09" y1="116.323" x2="929.92" y2="124.713"/>
	<path d="M905.029,129.713c-1.859,0-3.369,1.511-3.369,3.38c0,1.86,1.51,3.37,3.369,3.37c1.871,0,3.381-1.51,3.381-3.37
		C908.41,131.224,906.9,129.713,905.029,129.713z M934.07,131.963h-29.041v2.25h29.041V131.963z"/>
	
		<line fill="none" stroke="#FF0000" stroke-width="2.25" stroke-miterlimit="10" x1="930.23" y1="129.153" x2="938.25" y2="137.553"/>
	
		<line fill="none" stroke="#FF0000" stroke-width="2.25" stroke-miterlimit="10" x1="938.13" y1="129.043" x2="930.109" y2="137.434"/>
	<path d="M905.22,142.144c-1.86,0-3.37,1.51-3.37,3.38c0,1.859,1.51,3.37,3.37,3.37c1.87,0,3.38-1.511,3.38-3.37
		C908.6,143.653,907.09,142.144,905.22,142.144z M934.26,144.394h-29.04v2.25h29.04V144.394z"/>
	
		<line fill="none" stroke="#FF0000" stroke-width="2.25" stroke-miterlimit="10" x1="930.42" y1="141.593" x2="938.439" y2="149.983"/>
	
		<line fill="none" stroke="#FF0000" stroke-width="2.25" stroke-miterlimit="10" x1="938.32" y1="141.474" x2="930.3" y2="149.873"/>
	<path d="M905.42,154.547c-1.87,0-3.381,1.512-3.381,3.375c0,1.864,1.511,3.375,3.381,3.375c1.859,0,3.369-1.511,3.369-3.375
		C908.789,156.059,907.279,154.547,905.42,154.547z M934.46,156.797h-29.04v2.25h29.04V156.797z"/>
	
		<line fill="none" stroke="#FF0000" stroke-width="2.25" stroke-miterlimit="10" x1="930.609" y1="153.99" x2="938.63" y2="162.417"/>
	<line fill="none" stroke="#FF0000" stroke-width="2.25" stroke-miterlimit="10" x1="938.51" y1="153.874" x2="930.5" y2="162.3"/>
</g>
</svg>
